<svg width="544" height="423" viewBox="0 0 544 423" fill="none" xmlns="http://www.w3.org/2000/svg">
<g opacity="0.08">
<ellipse cx="321.3" cy="13.5462" rx="13.6" ry="13.5462" fill="#212121"/>
<ellipse cx="362.1" cy="13.5462" rx="13.6" ry="13.5462" fill="#212121"/>
<ellipse cx="402.9" cy="13.5462" rx="13.6" ry="13.5462" fill="#212121"/>
<ellipse cx="443.7" cy="13.5462" rx="13.6" ry="13.5462" fill="#212121"/>
<ellipse cx="280.5" cy="54.1847" rx="13.6" ry="13.5462" fill="#212121"/>
<ellipse cx="321.3" cy="54.1847" rx="13.6" ry="13.5462" fill="#212121"/>
<ellipse cx="362.1" cy="54.1847" rx="13.6" ry="13.5462" fill="#212121"/>
<ellipse cx="402.9" cy="54.1847" rx="13.6" ry="13.5462" fill="#212121"/>
<ellipse cx="443.7" cy="54.1847" rx="13.6" ry="13.5462" fill="#212121"/>
<ellipse cx="484.5" cy="54.1847" rx="13.6" ry="13.5462" fill="#212121"/>
<ellipse cx="239.7" cy="94.8232" rx="13.6" ry="13.5462" fill="#212121"/>
<ellipse cx="280.5" cy="94.8232" rx="13.6" ry="13.5462" fill="#212121"/>
<ellipse cx="321.3" cy="94.8232" rx="13.6" ry="13.5462" fill="#212121"/>
<ellipse cx="362.1" cy="94.8232" rx="13.6" ry="13.5462" fill="#212121"/>
<ellipse cx="402.9" cy="94.8232" rx="13.6" ry="13.5462" fill="#212121"/>
<ellipse cx="443.7" cy="94.8232" rx="13.6" ry="13.5462" fill="#212121"/>
<ellipse cx="484.5" cy="94.8232" rx="13.6" ry="13.5462" fill="#212121"/>
<ellipse cx="525.3" cy="94.8232" rx="13.6" ry="13.5462" fill="#212121"/>
<ellipse cx="239.7" cy="135.461" rx="13.6" ry="13.5462" fill="#212121"/>
<ellipse cx="280.5" cy="135.461" rx="13.6" ry="13.5462" fill="#212121"/>
<ellipse cx="321.3" cy="135.461" rx="13.6" ry="13.5462" fill="#212121"/>
<ellipse cx="362.1" cy="135.461" rx="13.6" ry="13.5462" fill="#212121"/>
<ellipse cx="402.9" cy="135.461" rx="13.6" ry="13.5462" fill="#212121"/>
<ellipse cx="443.7" cy="135.461" rx="13.6" ry="13.5462" fill="#212121"/>
<ellipse cx="484.5" cy="135.461" rx="13.6" ry="13.5462" fill="#212121"/>
<ellipse cx="525.3" cy="135.461" rx="13.6" ry="13.5462" fill="#212121"/>
<ellipse cx="239.7" cy="176.1" rx="13.6" ry="13.5462" fill="#212121"/>
<ellipse cx="280.5" cy="176.1" rx="13.6" ry="13.5462" fill="#212121"/>
<ellipse cx="321.3" cy="176.1" rx="13.6" ry="13.5462" fill="#212121"/>
<ellipse cx="362.1" cy="176.1" rx="13.6" ry="13.5462" fill="#212121"/>
<ellipse cx="402.9" cy="176.1" rx="13.6" ry="13.5462" fill="#212121"/>
<ellipse cx="443.7" cy="176.1" rx="13.6" ry="13.5462" fill="#212121"/>
<ellipse cx="484.5" cy="176.1" rx="13.6" ry="13.5462" fill="#212121"/>
<ellipse cx="525.3" cy="176.1" rx="13.6" ry="13.5462" fill="#212121"/>
<ellipse cx="239.7" cy="216.739" rx="13.6" ry="13.5462" fill="#212121"/>
<ellipse cx="280.5" cy="216.739" rx="13.6" ry="13.5462" fill="#212121"/>
<ellipse cx="321.3" cy="216.739" rx="13.6" ry="13.5462" fill="#212121"/>
<ellipse cx="362.1" cy="216.739" rx="13.6" ry="13.5462" fill="#212121"/>
<ellipse cx="402.9" cy="216.739" rx="13.6" ry="13.5462" fill="#212121"/>
<ellipse cx="443.7" cy="216.739" rx="13.6" ry="13.5462" fill="#212121"/>
<ellipse cx="484.5" cy="216.739" rx="13.6" ry="13.5462" fill="#212121"/>
<ellipse cx="525.3" cy="216.739" rx="13.6" ry="13.5462" fill="#212121"/>
<ellipse cx="280.5" cy="257.377" rx="13.6" ry="13.5462" fill="#212121"/>
<ellipse cx="321.3" cy="257.377" rx="13.6" ry="13.5462" fill="#212121"/>
<ellipse cx="362.1" cy="257.377" rx="13.6" ry="13.5462" fill="#212121"/>
<ellipse cx="402.9" cy="257.377" rx="13.6" ry="13.5462" fill="#212121"/>
<ellipse cx="443.7" cy="257.377" rx="13.6" ry="13.5462" fill="#212121"/>
<ellipse cx="484.5" cy="257.377" rx="13.6" ry="13.5462" fill="#212121"/>
<ellipse cx="321.3" cy="298.016" rx="13.6" ry="13.5462" fill="#212121"/>
<ellipse cx="362.1" cy="298.016" rx="13.6" ry="13.5462" fill="#212121"/>
<ellipse cx="402.9" cy="298.016" rx="13.6" ry="13.5462" fill="#212121"/>
<ellipse cx="443.7" cy="298.016" rx="13.6" ry="13.5462" fill="#212121"/>
</g>
<g clip-path="url(#clip0_1_1780)">
<path opacity="0.08" d="M23.8479 358C23.8479 358 38.3527 343.402 123.734 338.57C209.116 333.738 484.784 330.791 525.668 336.249C566.551 341.71 537.314 408.59 455.239 418.236C373.165 427.882 257.101 411.937 158.986 420.94C60.8722 429.946 -49.5152 397.951 23.8479 358Z" fill="#212121"/>
<path d="M452.929 191.807C459.85 192.089 446.296 200.252 430.431 203.606C414.565 206.955 417.963 217.429 407.934 216.302C396.268 214.989 387.134 215.098 379.881 216.047C376.67 216.467 373.196 217.135 369.476 217.694C380.746 215.889 390.797 208.365 371.267 209.428C351.366 210.513 351.421 207.203 350.443 210.212C349.124 214.281 340.463 214.49 333.96 218.645L333.778 218.366C333.778 218.366 333.591 215.566 332.411 211.986C332.411 211.986 360.631 199.525 391.202 196.095C421.777 192.664 446.005 191.518 452.929 191.807Z" fill="white"/>
<path d="M365.317 315.521C380.533 331.582 380.996 351.927 375.319 358.397H375.293C374.247 333.842 336.628 307.461 314.99 290.453C313 288.889 311.148 287.405 309.469 286.012V286.008C309.469 286.008 314.86 285.116 319.922 283.366C324.989 281.622 325.858 277.262 325.858 277.262C336.229 287.049 357.3 307.058 365.317 315.521Z" fill="#FF4081"/>
<path d="M254.527 318.45C251.719 314.763 249.051 311.045 246.527 307.333C249.054 308.958 260.061 314.772 283.233 311.02C309.988 306.69 318.088 292.919 314.99 290.453C336.628 307.461 374.247 333.842 375.293 358.396C375.479 362.705 374.541 366.954 372.192 371.087C352.618 405.524 287.444 391.864 287.444 391.864C277.225 371.838 276.398 343.639 276.398 343.639C271.085 338.306 266.007 332.676 261.234 326.906C258.924 324.114 256.686 321.294 254.527 318.45Z" fill="#FF4081"/>
<path d="M287.444 391.864C287.444 391.864 274.392 386.78 260.285 385.14C258.694 384.957 256.75 384.729 254.531 384.479C254.531 384.479 263.218 349.345 261.232 326.904C266.005 332.674 271.083 338.303 276.396 343.637C276.398 343.639 277.225 371.837 287.444 391.864Z" fill="white"/>
<path d="M261.234 326.906C263.22 349.347 254.533 384.482 254.533 384.482C237.088 382.51 202.42 379.02 184.24 382.064C163.741 385.494 134.082 385.416 134.082 385.416C157.765 383.188 144.547 365.737 144.547 365.737C175.287 357.886 214.439 341.851 220.478 331.274C222.413 327.886 223.585 322.235 224.26 315.415L225.349 315.521L254.527 318.45C256.686 321.294 258.924 324.114 261.234 326.906Z" fill="#212121"/>
<path d="M114.851 382.569C119.28 386.29 94.8396 387.851 73.3761 389.562C51.9126 391.273 37.7302 383.349 44.6519 377.562C51.5736 371.773 61.5244 364.057 56.5499 351.623C51.5736 339.19 48.3295 309.178 54.927 299.78C61.5244 290.378 69.4502 288.612 69.4502 288.612C69.4502 288.612 73.0537 282.035 87.6382 285.178C94.2708 286.61 93.8762 290.156 93.8762 290.156C90.6228 288.402 86.9415 287.304 83.0046 287.051C80.8147 286.91 78.6693 287.038 76.6054 287.407C76.6054 287.407 81.4983 295.177 78.6137 302.787C75.7327 310.393 70.2802 323.041 71.8606 330.556C71.8606 330.556 62.5971 331.243 65.2187 336.58C67.4549 341.125 77.9004 337.395 77.9004 337.395C77.9004 337.395 89.6594 342.06 91.6937 353.674C91.3343 354.789 91.0879 355.934 90.9619 357.113C89.4797 371.028 102.447 378.805 114.851 382.569Z" fill="#212121"/>
<path d="M99.538 315.874L99.5251 315.813C99.5251 315.813 100.14 310.878 107.651 312.229H107.655C107.681 313.083 107.668 313.948 107.612 314.82C107.543 315.905 107.405 316.972 107.204 318.015H107.201C107.201 318.015 104.54 322.542 96.683 322.237C94.9174 322.169 93.4112 321.688 92.2144 320.969V320.963C92.2144 320.963 93.628 317.078 99.538 315.874Z" fill="#FF4081"/>
<path d="M101.066 295.829C98.7598 296.104 95.5714 296.506 92.9276 295.786C92.9276 295.786 94.5413 292.023 96.4588 291.744C98.154 292.922 99.6991 294.294 101.066 295.829Z" fill="white"/>
<path d="M107.655 312.229H107.651C100.14 310.878 99.5251 315.813 99.5251 315.813L99.5381 315.874C93.628 317.078 92.2126 320.963 92.2126 320.963V320.969C88.0848 318.49 87.6735 313.17 93.2982 312.213C100.55 310.977 105.78 303.646 105.78 303.646L105.858 303.617C106.928 306.308 107.551 309.211 107.655 312.229Z" fill="#212121"/>
<path d="M104.527 325.503C104.527 325.503 105.104 330.117 106.073 331.441C106.614 332.173 109.07 329.97 112.294 326.814C114.893 325.889 137.263 317.906 147.641 312.949C148.857 312.367 150.081 311.765 151.302 311.161C152.071 311.354 159.423 313.364 157.611 320.961C124.314 328.362 96.746 337.944 91.6975 353.671C89.6632 342.056 77.9041 337.391 77.9041 337.391C77.9041 337.391 67.4605 341.122 65.2224 336.576C62.6009 331.239 71.8644 330.552 71.8644 330.552C70.2859 323.036 75.7365 310.388 78.6174 302.783C81.5039 295.173 76.6091 287.403 76.6091 287.403C78.673 287.034 80.8184 286.906 83.0083 287.047C86.9453 287.301 90.6266 288.399 93.8799 290.152C94.7711 290.633 95.6326 291.164 96.4589 291.744C94.5432 292.023 92.9276 295.786 92.9276 295.786C95.5714 296.506 98.7599 296.104 101.067 295.829C102.845 295.614 104.103 295.476 104.186 295.983C104.268 296.493 103.888 297.72 103.434 298.924C104.394 300.395 105.213 301.964 105.861 303.615L105.783 303.644C105.783 303.644 100.553 310.975 93.3019 312.211C87.6771 313.168 88.0884 318.488 92.2162 320.967C93.4149 321.686 94.9211 322.167 96.6849 322.235C104.542 322.54 107.203 318.013 107.203 318.013H107.206C106.695 320.684 105.778 323.201 104.527 325.503Z" fill="white"/>
<path d="M190.43 307.805L189.149 314.695C178.42 316.654 167.751 318.709 157.609 320.963C159.423 313.366 152.071 311.356 151.301 311.163C161.144 306.292 170.947 301.138 177.917 303.046C185.503 305.121 190.43 307.805 190.43 307.805Z" fill="#212121"/>
<path d="M151.302 311.161C150.081 311.765 148.857 312.365 147.641 312.949C137.263 317.906 114.893 325.889 112.294 326.814C114.864 324.293 117.922 321.167 120.881 318.45C127.553 312.319 192.671 290.453 192.671 290.453L193.624 290.629L190.431 307.805C190.431 307.805 185.503 305.121 177.918 303.046C170.948 301.138 161.144 306.292 151.302 311.161Z" fill="white"/>
<path d="M234.401 286.616C238.351 305.124 224.477 312.949 224.477 312.949C226.35 289.21 222.983 253.758 224.447 247.635C224.645 246.799 224.81 245.83 224.936 244.758C226.952 244.796 228.964 244.787 230.911 244.716V244.758C230.911 244.758 223.993 262.697 234.401 286.607C234.401 286.612 234.401 286.612 234.401 286.616Z" fill="white"/>
<path d="M91.6956 353.671C96.7442 337.944 124.312 328.362 157.609 320.961C167.751 318.707 178.42 316.652 189.149 314.693L190.43 307.803L193.622 290.628L200.86 251.689C200.86 251.689 199.45 247.036 197.283 245.595C195.111 244.15 194.159 241.864 194.159 241.864L194.15 241.769C194.474 241.747 194.656 241.734 194.656 241.734C194.656 241.734 196.762 242.103 200.145 242.588C200.058 239.085 199.808 225.682 200.703 219.903C200.897 218.673 201.14 217.789 201.448 217.417C203.43 215.034 204.771 219.613 204.771 219.613C204.771 219.613 204.781 215.75 209.02 215.063C209.687 214.957 210.452 214.925 211.343 214.999C217.907 215.551 220.225 219.488 220.225 219.488C220.225 219.488 222.891 218.245 223.808 218.309C223.986 218.322 224.184 219.106 224.388 220.422C225.123 225.275 225.82 237.37 224.932 244.754C224.806 245.826 224.643 246.794 224.443 247.631C222.982 253.754 226.348 289.207 224.473 312.946C224.408 313.783 224.334 314.605 224.256 315.411C223.582 322.232 222.409 327.883 220.475 331.27C214.435 341.847 175.284 357.883 144.544 365.733C144.544 365.733 157.761 383.182 134.078 385.413C130.549 385.743 122.812 384.983 114.847 382.565C102.443 378.802 89.476 371.023 90.96 357.106C91.0897 355.931 91.3361 354.785 91.6956 353.671Z" fill="white"/>
<path d="M222.348 203.869V203.873C220.695 204.53 216.442 205.49 217.077 203.873C217.718 202.257 217.077 199.788 217.077 199.788C218.635 201.372 220.404 202.749 222.348 203.869Z" fill="white"/>
<path d="M210.159 182.05C208.51 182.599 206.961 182.976 206.035 182.853C203.293 182.489 212.784 172.649 212.784 172.649C212.784 172.649 208.779 171.422 210.578 168.892C212.373 166.359 218.157 164.884 218.157 164.884C218.157 164.884 215.989 162.046 218.157 160.825C220.325 159.608 228.704 159.274 228.704 159.274C230.613 158.802 232.612 158.548 234.67 158.548C248.221 158.548 259.202 169.43 259.202 182.853C259.202 186.385 258.44 189.739 257.073 192.769C254.785 192.332 252.024 192.069 249.095 192.361C246.574 192.615 243.92 193.279 241.342 194.608C235.843 197.438 232.852 201.605 231.365 206.942C228.111 206.505 225.06 205.437 222.344 203.869C220.401 202.751 218.631 201.374 217.073 199.788C212.786 195.411 210.142 189.437 210.142 182.853C210.146 182.585 210.151 182.315 210.159 182.05Z" fill="white"/>
<path d="M227.613 211.643L230.565 210.837C230.146 213.748 230.037 216.937 230.12 220.389H224.664L224.391 220.428C224.188 219.111 223.989 218.327 223.811 218.314C222.894 218.25 220.228 219.493 220.228 219.493C220.228 219.493 217.909 215.557 211.346 215.004C210.455 214.931 209.69 214.962 209.023 215.068L209.006 214.962C209.006 214.962 208.591 212.59 209.347 210.785C209.529 210.335 209.788 209.924 210.148 209.588C211.939 207.912 215.958 210.513 215.958 210.513C215.958 210.513 220.951 206.917 224.477 208.949C228.002 210.972 227.613 211.643 227.613 211.643Z" fill="white"/>
<path d="M209.342 210.785H209.345C208.588 212.59 209.005 214.962 209.005 214.962L209.021 215.068C204.78 215.755 204.773 219.618 204.773 219.618C204.773 219.618 203.432 215.039 201.449 217.422C201.142 217.795 200.901 218.678 200.704 219.908L200.401 219.891C200.401 219.891 195.295 216.954 192.54 216.315L193.764 216.26C193.664 212.513 201.586 213.489 201.586 213.489C198.959 212.481 198.342 209.292 201.123 210.021C203.908 210.75 209.342 210.785 209.342 210.785Z" fill="white"/>
<path d="M200.403 219.892L200.707 219.908C199.812 225.688 200.062 239.09 200.149 242.593C196.766 242.109 194.659 241.74 194.659 241.74C194.659 241.74 194.478 241.752 194.154 241.774C191.947 241.919 183.169 242.4 181.407 241.051C179.386 239.507 176.87 225.77 180.33 224.819C183.791 223.863 193.89 222.68 193.89 222.68C193.89 222.68 189.468 216.994 191.165 216.275C191.467 216.146 191.953 216.181 192.545 216.317C195.299 216.954 200.403 219.892 200.403 219.892Z" fill="white"/>
<path d="M333.958 218.643C340.461 214.488 349.122 214.279 350.441 210.21C351.419 207.201 351.362 210.51 371.266 209.426C390.795 208.363 380.746 215.887 369.474 217.692C369.257 217.727 369.046 217.76 368.829 217.791C357.313 219.412 353.409 237.583 336.342 242.641C323.034 246.586 305.447 232.905 298.338 226.683C273.823 229.448 254.533 231.39 254.533 231.39C252.954 235.179 250.488 238.884 246.655 241.414C243.383 243.572 237.482 244.488 230.911 244.715C228.964 244.789 226.952 244.796 224.936 244.758C225.823 237.375 225.127 225.28 224.391 220.426L224.663 220.387H230.12C230.038 216.936 230.146 213.746 230.564 210.835C230.763 209.476 231.027 208.176 231.368 206.942C232.856 201.605 235.846 197.438 241.345 194.608C243.924 193.279 246.577 192.615 249.099 192.361C252.028 192.069 254.788 192.332 257.076 192.769C260.754 193.463 263.216 194.608 263.216 194.608C281.617 199.283 280.167 201.901 306.645 197.392C323.635 194.498 330.034 204.809 332.409 211.986C333.589 215.566 333.776 218.366 333.776 218.366L333.958 218.643Z" fill="#FFA000"/>
<path d="M325.86 277.26C325.86 277.26 324.989 281.62 319.924 283.364C314.862 285.114 309.471 286.006 309.471 286.006V286.01C305.932 283.065 303.175 280.509 301.58 278.429C307.416 276.834 313.625 274.464 319.924 271.667C319.924 271.669 322.238 273.843 325.86 277.26Z" fill="white"/>
<path d="M301.578 278.431C303.175 280.511 305.93 283.067 309.469 286.012C311.147 287.405 313 288.889 314.99 290.453C318.088 292.919 309.988 306.69 283.233 311.019C260.059 314.77 249.052 308.958 246.527 307.333C243.922 303.505 241.473 299.684 239.207 295.906C237.299 292.73 235.711 289.625 234.399 286.616C234.399 286.612 234.399 286.612 234.399 286.607C223.989 262.695 230.909 244.758 230.909 244.758V244.716C237.48 244.488 243.381 243.572 246.653 241.415C250.486 238.885 252.952 235.181 254.531 231.39C254.531 231.39 273.823 229.448 298.336 226.683C305.445 232.903 323.032 246.585 336.34 242.641C353.409 237.583 357.311 219.412 368.827 217.791C369.044 217.762 369.255 217.727 369.472 217.692C373.192 217.134 376.675 216.528 379.877 216.045C384.07 215.414 392.203 216.322 407.93 216.3C433.842 216.271 456.414 218.928 461.333 221.895C469.236 226.659 446.77 229.874 435.738 233.402C424.708 236.931 411.475 243.967 403.037 245.325C394.6 246.689 389.302 240.489 389.302 240.489C389.302 240.489 397.151 234.339 376.696 242.639C363.712 247.905 341.265 262.207 319.924 271.669C313.624 274.465 307.414 276.836 301.578 278.431Z" fill="white"/>
<path d="M231.368 208.015C231.32 208.015 231.272 208.011 231.222 208.005C227.882 207.558 224.714 206.476 221.803 204.794C219.793 203.636 217.942 202.204 216.302 200.535C211.633 195.771 209.064 189.49 209.064 182.853C209.064 182.576 209.067 182.293 209.077 182.016C209.097 181.424 209.596 180.956 210.194 180.98C210.79 181 211.259 181.494 211.239 182.087C211.23 182.341 211.226 182.599 211.226 182.853C211.226 188.93 213.579 194.68 217.851 199.042C219.352 200.57 221.047 201.883 222.889 202.944C225.555 204.484 228.454 205.472 231.511 205.883C232.102 205.962 232.517 206.504 232.437 207.089C232.367 207.624 231.902 208.015 231.368 208.015Z" fill="#212121"/>
<path d="M257.075 193.841C256.926 193.841 256.776 193.812 256.634 193.747C256.089 193.505 255.844 192.872 256.087 192.332C257.438 189.339 258.121 186.15 258.121 182.853C258.121 170.042 247.602 159.619 234.672 159.619C232.747 159.619 230.827 159.852 228.967 160.311C228.386 160.454 227.8 160.105 227.656 159.531C227.511 158.956 227.863 158.374 228.443 158.231C230.475 157.73 232.571 157.474 234.674 157.474C248.797 157.474 260.287 168.859 260.287 182.851C260.287 186.451 259.539 189.936 258.064 193.206C257.884 193.604 257.488 193.841 257.075 193.841Z" fill="#212121"/>
<path d="M88.4884 339.343C88.016 339.343 87.5843 339.035 87.4491 338.563C87.286 337.994 87.6195 337.401 88.1939 337.239C94.7376 335.4 100.344 330.936 103.575 324.993C104.798 322.741 105.663 320.325 106.143 317.813C106.335 316.801 106.467 315.771 106.532 314.751C106.586 313.93 106.599 313.093 106.573 312.261C106.474 309.417 105.896 306.637 104.851 304.006C104.238 302.448 103.454 300.935 102.523 299.506C102.198 299.009 102.341 298.346 102.843 298.025C103.343 297.704 104.014 297.845 104.338 298.343C105.35 299.892 106.2 301.535 106.865 303.226C107.999 306.081 108.627 309.099 108.735 312.193C108.762 313.095 108.748 314 108.69 314.888C108.62 315.995 108.477 317.115 108.266 318.213C107.745 320.94 106.808 323.563 105.478 326.011C101.97 332.462 95.8862 337.305 88.783 339.303C88.6848 339.33 88.5866 339.343 88.4884 339.343Z" fill="#212121"/>
<path d="M101.066 296.901C100.766 296.901 100.47 296.778 100.255 296.539C98.9414 295.065 97.4556 293.747 95.8363 292.621C95.0415 292.065 94.2115 291.553 93.3611 291.094C90.1374 289.357 86.6303 288.356 82.936 288.118C80.8758 287.984 78.8119 288.099 76.7999 288.459C76.2107 288.564 75.6494 288.176 75.5438 287.594C75.4382 287.012 75.8291 286.454 76.4164 286.35C78.6026 285.959 80.8443 285.834 83.0768 285.979C87.0861 286.236 90.8952 287.324 94.3949 289.21C95.3176 289.708 96.2217 290.266 97.0813 290.868C98.8358 292.087 100.45 293.519 101.876 295.12C102.271 295.564 102.228 296.242 101.782 296.633C101.576 296.813 101.32 296.901 101.066 296.901Z" fill="#212121"/>
<path d="M200.486 243.711C200.432 243.711 200.378 243.708 200.323 243.699L199.982 243.651C197.101 243.238 195.115 242.904 194.6 242.815L194.222 242.841C189.079 243.181 182.565 243.293 180.742 241.896C178.67 240.313 176.883 231.37 177.757 226.945C178.107 225.166 178.876 224.103 180.038 223.784C182.663 223.059 188.836 222.227 191.932 221.838C190.748 220.119 189.401 217.777 189.757 216.422C189.894 215.9 190.24 215.496 190.733 215.287C191.245 215.07 191.897 215.067 192.784 215.272C195.665 215.941 200.729 218.842 200.944 218.965C201.46 219.262 201.636 219.917 201.336 220.43C201.036 220.942 200.375 221.116 199.858 220.819C199.808 220.789 194.859 217.955 192.293 217.36C192.132 217.323 192.002 217.299 191.899 217.285C192.147 218.204 193.346 220.226 194.743 222.025C194.98 222.33 195.033 222.739 194.882 223.095C194.731 223.452 194.398 223.699 194.013 223.744C193.913 223.755 183.958 224.928 180.616 225.851C180.406 225.908 180.091 226.323 179.889 227.303C179.009 231.581 181.105 239.445 182.065 240.201C182.839 240.794 187.211 241.158 194.077 240.704L194.578 240.671C194.667 240.666 194.756 240.669 194.843 240.684C194.863 240.688 196.975 241.057 200.299 241.532L200.643 241.58C201.234 241.668 201.64 242.213 201.553 242.799C201.473 243.33 201.012 243.711 200.486 243.711Z" fill="#212121"/>
<path d="M227.229 245.852C226.474 245.852 225.701 245.845 224.914 245.83C224.317 245.819 223.841 245.329 223.852 244.738C223.863 244.154 224.345 243.686 224.934 243.686C224.941 243.686 224.949 243.686 224.954 243.686C227.053 243.726 229.043 243.711 230.868 243.643C238.186 243.39 243.296 242.34 246.055 240.52C249.26 238.405 251.776 235.196 253.532 230.979C256.485 223.898 256.27 216.381 256.267 216.306C256.246 215.715 256.715 215.219 257.312 215.199C257.904 215.18 258.408 215.641 258.429 216.232C258.44 216.557 258.67 224.272 255.531 231.796C253.608 236.411 250.822 239.948 247.253 242.303C244.156 244.345 238.67 245.516 230.948 245.784C229.769 245.83 228.526 245.852 227.229 245.852Z" fill="#212121"/>
<path d="M132.284 386.56C128.047 386.56 121.227 385.626 114.534 383.593C109.437 382.048 102.254 379.204 96.9701 374.439C91.5565 369.558 89.1739 363.69 89.8872 356.998C90.0169 355.769 90.2781 354.539 90.6635 353.346C96.3642 335.59 129.309 326.155 157.372 319.917C166.063 317.984 175.602 316.083 188.221 313.774L199.748 251.758C199.306 250.411 198.098 247.429 196.68 246.487C194.264 244.881 193.203 242.382 193.16 242.276C192.932 241.729 193.195 241.103 193.747 240.877C194.3 240.651 194.931 240.912 195.159 241.457C195.183 241.512 196.047 243.484 197.886 244.708C200.306 246.317 201.742 250.87 201.897 251.382C201.947 251.546 201.957 251.718 201.925 251.885L190.213 314.888C190.131 315.325 189.786 315.668 189.345 315.747C176.391 318.114 166.678 320.043 157.846 322.008C139.004 326.196 124.827 330.501 114.508 335.17C102.119 340.775 94.9932 346.933 92.7255 353.996C92.3846 355.052 92.1549 356.137 92.04 357.222C90.4856 371.805 105.863 378.721 115.167 381.545C122.713 383.836 130.346 384.69 133.98 384.35C140.862 383.702 145.094 381.71 146.556 378.429C148.846 373.292 143.734 366.449 143.682 366.381C143.323 365.908 143.419 365.236 143.897 364.881C144.375 364.527 145.053 364.621 145.411 365.094C145.653 365.416 151.33 373.024 148.534 379.295C146.732 383.338 141.903 385.756 134.183 386.483C133.631 386.535 132.994 386.56 132.284 386.56Z" fill="#212121"/>
<path d="M116.055 371.47C114.793 371.47 113.648 371.413 112.625 371.298C112.033 371.232 111.605 370.701 111.673 370.112C111.74 369.524 112.272 369.098 112.87 369.168C119.104 369.868 130.259 368.281 144.279 364.698C159.638 360.776 177.231 354.737 191.339 348.547C206.857 341.737 216.871 335.416 219.539 330.745C221.24 327.767 222.466 322.573 223.185 315.308C223.263 314.511 223.335 313.694 223.4 312.865C224.443 299.644 223.856 282.836 223.385 269.33C222.998 258.237 222.718 250.222 223.396 247.385C223.585 246.592 223.743 245.665 223.863 244.631C224.701 237.654 224.102 225.728 223.322 220.582C223.248 220.099 223.183 219.752 223.13 219.504C222.505 219.688 221.557 220.055 220.69 220.459C220.184 220.696 219.578 220.508 219.294 220.029C219.213 219.893 217.119 216.561 211.254 216.067C210.498 216.005 209.805 216.023 209.195 216.122C205.899 216.655 205.855 219.495 205.855 219.616C205.853 220.149 205.457 220.6 204.925 220.675C204.391 220.751 203.886 220.426 203.735 219.914C203.463 218.994 202.911 217.989 202.591 217.815C202.542 217.843 202.439 217.918 202.287 218.1C202.266 218.127 202.027 218.48 201.777 220.071C200.873 225.906 201.164 239.832 201.232 242.564L201.255 243.414C201.271 244.005 200.801 244.499 200.202 244.515C200.193 244.515 200.182 244.515 200.173 244.515C199.589 244.515 199.107 244.055 199.093 243.473L199.07 242.615C199.002 239.852 198.709 225.759 199.641 219.743C199.887 218.186 200.188 217.261 200.616 216.741C201.514 215.66 202.409 215.579 203.002 215.7C203.628 215.829 204.139 216.236 204.549 216.741C205.301 215.509 206.631 214.365 208.851 214.005C209.634 213.879 210.505 213.855 211.437 213.93C216.703 214.373 219.472 216.855 220.58 218.157C221.612 217.718 223.065 217.182 223.891 217.239C224.956 217.316 225.182 218.437 225.464 220.261C226.166 224.894 226.95 237.083 226.014 244.881C225.884 245.993 225.712 247.003 225.505 247.877C224.893 250.435 225.197 259.157 225.551 269.255C226.023 282.814 226.614 299.688 225.56 313.028C225.495 313.871 225.421 314.701 225.342 315.512C224.582 323.185 223.302 328.511 221.425 331.797C217.716 338.293 203.495 345.556 192.219 350.504C178.009 356.739 160.29 362.821 144.823 366.77C132.799 369.846 122.791 371.47 116.055 371.47Z" fill="#212121"/>
<path d="M97.4405 323.323C97.1793 323.323 96.9143 323.317 96.6401 323.306C94.8078 323.234 93.0829 322.742 91.6527 321.883C89.07 320.332 87.6416 317.688 88.0973 315.303C88.5123 313.138 90.3409 311.626 93.1163 311.156C99.8471 310.01 104.849 303.098 104.898 303.028C105.242 302.545 105.918 302.429 106.406 302.771C106.893 303.112 107.01 303.782 106.665 304.265C106.441 304.579 101.088 311.974 93.4831 313.269C91.6212 313.585 90.4632 314.449 90.2242 315.703C89.9389 317.19 90.9894 318.977 92.7754 320.051C93.8926 320.723 95.2599 321.108 96.7272 321.165C103.86 321.443 106.245 317.514 106.269 317.473C106.569 316.961 107.232 316.788 107.747 317.086C108.264 317.383 108.438 318.04 108.138 318.551C108.018 318.753 105.238 323.323 97.4405 323.323Z" fill="#212121"/>
<path d="M92.2141 322.035C92.0919 322.035 91.9677 322.015 91.8473 321.971C91.2859 321.771 90.9951 321.156 91.197 320.6C91.2637 320.418 92.8904 316.135 99.3211 314.824C100.618 314.559 102.05 314.436 103.562 314.449C104.158 314.456 104.638 314.941 104.631 315.532C104.624 316.12 104.142 316.592 103.549 316.592C103.545 316.592 103.54 316.592 103.536 316.592C102.171 316.573 100.901 316.687 99.7546 316.922C94.4985 317.994 93.2424 321.292 93.2294 321.325C93.0719 321.764 92.6569 322.035 92.2141 322.035Z" fill="#212121"/>
<path d="M99.5268 316.886C99.4823 316.886 99.4379 316.884 99.3934 316.876C98.8005 316.805 98.38 316.269 98.4522 315.681C98.4633 315.597 98.7301 313.614 100.631 312.23C102.348 310.977 104.775 310.623 107.845 311.174C108.433 311.28 108.824 311.837 108.716 312.421C108.609 313.003 108.046 313.39 107.458 313.283C105.033 312.847 103.115 313.08 101.913 313.955C100.772 314.787 100.601 315.933 100.6 315.944C100.531 316.487 100.066 316.886 99.5268 316.886Z" fill="#212121"/>
<path d="M102.182 303.004C102.032 303.004 101.88 302.972 101.733 302.906C101.19 302.66 100.95 302.025 101.198 301.487C101.205 301.472 101.872 300.015 102.419 298.553C102.754 297.665 102.928 297.083 103.019 296.714C102.485 296.739 101.722 296.831 101.198 296.894L101.05 296.912C98.68 297.195 95.4359 297.582 92.6421 296.822C92.3419 296.739 92.0918 296.534 91.9547 296.255C91.8195 295.976 91.8102 295.654 91.9325 295.37C92.2419 294.648 93.9056 291.033 96.3011 290.686C96.894 290.6 97.4405 291.006 97.5276 291.591C97.6147 292.177 97.2053 292.722 96.6142 292.807C95.9954 292.897 95.1654 293.934 94.5337 295.012C96.6365 295.28 98.9857 294.999 100.788 294.784L100.937 294.766C103.206 294.492 105.003 294.275 105.253 295.814C105.324 296.253 105.296 297.044 104.446 299.3C103.873 300.834 103.195 302.313 103.167 302.374C102.986 302.77 102.593 303.004 102.182 303.004Z" fill="#212121"/>
<path d="M79.7974 309.545C79.7215 309.545 79.6455 309.538 79.5695 309.521C78.9859 309.396 78.6135 308.827 78.7395 308.249C79.5529 304.489 80.9739 302.097 82.9618 301.138C84.8182 300.244 86.4004 300.956 86.5746 301.041C87.1118 301.302 87.3342 301.942 87.0711 302.475C86.8117 303.002 86.1725 303.224 85.6371 302.974C85.5815 302.95 84.7886 302.622 83.8678 303.084C82.9451 303.547 81.6742 304.898 80.8516 308.699C80.746 309.202 80.2976 309.545 79.7974 309.545Z" fill="#212121"/>
<path d="M87.0767 307.578C86.858 307.578 86.6376 307.513 86.4467 307.377L85.8983 306.986C85.4129 306.641 85.3018 305.971 85.6501 305.49C85.9984 305.009 86.6746 304.898 87.16 305.244L87.7084 305.635C88.1938 305.98 88.305 306.65 87.9567 307.131C87.7455 307.423 87.4138 307.578 87.0767 307.578Z" fill="#212121"/>
<path d="M96.7385 296.885C96.4995 296.885 96.2587 296.806 96.0586 296.646L95.5787 296.261C95.1137 295.888 95.0433 295.212 95.4194 294.753C95.7955 294.292 96.4773 294.222 96.9405 294.595L97.4203 294.981C97.8854 295.353 97.9558 296.029 97.5797 296.488C97.3666 296.749 97.0535 296.885 96.7385 296.885Z" fill="#212121"/>
<path d="M106.38 332.654C106.335 332.654 106.293 332.653 106.25 332.649C105.822 332.614 105.448 332.41 105.2 332.074C104.12 330.596 103.556 326.451 103.455 325.634C103.382 325.046 103.803 324.512 104.396 324.438C104.983 324.367 105.528 324.784 105.602 325.371C105.793 326.902 106.232 329.21 106.699 330.336C107.506 329.845 109.128 328.41 111.534 326.052C112.247 325.353 113 324.606 113.778 323.833C115.756 321.868 117.998 319.639 120.147 317.664C123.019 315.024 136.06 309.466 158.906 301.146C175.836 294.979 192.162 289.493 192.325 289.438C192.892 289.247 193.505 289.548 193.696 290.11C193.887 290.67 193.585 291.279 193.018 291.468C192.855 291.523 176.553 297.002 159.647 303.16C131.528 313.401 123.445 317.554 121.617 319.235C119.497 321.181 117.366 323.298 115.308 325.345C114.528 326.122 113.772 326.871 113.055 327.576C109.092 331.456 107.53 332.654 106.38 332.654Z" fill="#212121"/>
<path d="M230.118 221.46H224.662C224.065 221.46 223.58 220.981 223.58 220.387C223.58 219.796 224.063 219.315 224.662 219.315H230.118C230.714 219.315 231.2 219.794 231.2 220.387C231.2 220.981 230.714 221.46 230.118 221.46Z" fill="#212121"/>
<path d="M287.548 281.655C287.055 281.655 286.573 281.644 286.099 281.624C285.502 281.598 285.039 281.097 285.065 280.506C285.091 279.914 285.61 279.465 286.193 279.481C290.456 279.667 295.536 278.963 301.291 277.396C306.68 275.923 312.629 273.729 319.481 270.691C330.232 265.923 341.385 259.781 351.223 254.362C361.174 248.879 369.769 244.146 376.305 241.638C383.445 238.901 389.164 239.399 389.403 239.421C389.685 239.446 389.944 239.582 390.126 239.795C390.326 240.028 395.16 245.512 402.863 244.266C407.688 243.489 414.161 240.79 421.016 237.933C425.829 235.927 430.806 233.852 435.406 232.381C438.281 231.462 441.814 230.59 445.557 229.666C449.627 228.662 453.835 227.625 456.995 226.545C461.607 224.972 461.883 223.991 461.9 223.885C461.914 223.784 461.742 223.394 460.771 222.809C456.393 220.169 434.959 217.332 407.932 217.369C400.905 217.382 395.612 217.182 391.367 217.024C386.198 216.831 382.782 216.704 380.036 217.103C378.389 217.341 376.681 217.62 374.871 217.918C373.185 218.193 371.44 218.478 369.635 218.749C369.042 218.839 368.494 218.436 368.403 217.85C368.314 217.264 368.72 216.719 369.311 216.631C371.101 216.363 372.838 216.078 374.517 215.805C376.336 215.507 378.056 215.226 379.721 214.984C382.665 214.556 386.159 214.686 391.447 214.883C395.675 215.041 400.922 215.241 407.929 215.226C408.068 215.226 408.212 215.226 408.351 215.226C433.064 215.226 456.529 217.742 461.894 220.978C463.497 221.944 464.219 223.031 464.038 224.21C463.565 227.283 456.905 229.077 446.077 231.748C442.372 232.662 438.872 233.525 436.067 234.423C431.556 235.866 426.622 237.922 421.852 239.913C414.876 242.821 408.288 245.567 403.208 246.384C395.369 247.651 390.128 242.907 388.798 241.536C387.428 241.482 382.687 241.49 377.081 243.64C370.686 246.092 362.15 250.792 352.27 256.236C342.393 261.678 331.197 267.845 320.361 272.65C313.409 275.734 307.358 277.963 301.862 279.465C296.524 280.921 291.716 281.655 287.548 281.655Z" fill="#212121"/>
<path d="M254.531 232.461C253.982 232.461 253.512 232.05 253.456 231.497C253.395 230.908 253.829 230.382 254.423 230.322C254.616 230.302 273.99 228.348 298.216 225.616C298.82 225.548 299.346 225.972 299.412 226.56C299.479 227.147 299.053 227.68 298.46 227.746C274.219 230.48 254.835 232.435 254.64 232.455C254.605 232.461 254.568 232.461 254.531 232.461Z" fill="#212121"/>
<path d="M312.589 373.266C312.404 373.266 312.218 373.22 312.046 373.121C299.909 366.139 287.657 356.474 275.628 344.392C270.423 339.169 265.299 333.514 260.397 327.586C258.092 324.8 255.826 321.944 253.662 319.096C250.901 315.472 248.2 311.716 245.629 307.934C243.013 304.089 240.539 300.228 238.275 296.457C236.415 293.362 234.777 290.193 233.405 287.042C233.167 286.499 233.419 285.867 233.968 285.634C234.516 285.399 235.154 285.651 235.389 286.194C236.725 289.26 238.32 292.344 240.132 295.361C242.373 299.097 244.826 302.925 247.42 306.736C249.97 310.487 252.649 314.212 255.387 317.807C257.532 320.633 259.78 323.466 262.066 326.229C266.927 332.106 272.006 337.711 277.163 342.888C289.058 354.835 301.158 364.384 313.128 371.269C313.645 371.566 313.821 372.221 313.521 372.734C313.324 373.073 312.961 373.266 312.589 373.266Z" fill="#212121"/>
<path d="M234.401 287.679C233.983 287.679 233.584 287.437 233.408 287.031C222.946 262.996 229.61 245.123 229.899 244.374C230.112 243.821 230.739 243.546 231.296 243.755C231.854 243.966 232.134 244.587 231.921 245.14C231.832 245.375 225.316 263.031 235.394 286.183C235.632 286.726 235.378 287.358 234.829 287.591C234.69 287.651 234.544 287.679 234.401 287.679Z" fill="#212121"/>
<path d="M290.279 367.644C289.949 367.644 289.623 367.495 289.41 367.213C284.434 360.581 282.268 350.858 282.177 350.448C282.051 349.87 282.422 349.299 283.005 349.174C283.593 349.049 284.165 349.417 284.291 349.995C284.311 350.09 286.453 359.682 291.146 365.935C291.502 366.41 291.403 367.08 290.924 367.435C290.729 367.574 290.503 367.644 290.279 367.644Z" fill="#212121"/>
<path d="M316.185 395.608C300.283 395.608 287.364 392.944 287.22 392.913C286.899 392.845 286.627 392.637 286.479 392.347C276.269 372.339 275.326 343.953 275.318 343.67C275.301 343.079 275.77 342.585 276.367 342.567C276.986 342.556 277.462 343.015 277.48 343.608C277.488 343.885 278.405 371.366 288.176 390.915C291.068 391.47 305.901 394.108 322.471 393.316C333.221 392.802 342.588 390.966 350.308 387.86C359.866 384.014 366.912 378.194 371.251 370.562C373.402 366.778 374.399 362.702 374.215 358.442C373.296 336.864 343.257 313.669 321.324 296.732C318.849 294.821 316.511 293.014 314.321 291.292C312.166 289.598 310.353 288.14 308.778 286.833C304.8 283.522 302.24 281.059 300.72 279.079C300.578 278.892 300.5 278.665 300.5 278.43C300.5 277.838 300.984 277.355 301.582 277.355C301.958 277.355 302.29 277.545 302.482 277.833C303.907 279.674 306.353 282.013 310.169 285.19C311.727 286.484 313.526 287.931 315.666 289.612C317.849 291.329 320.185 293.132 322.655 295.039C344.92 312.233 375.414 335.781 376.377 358.349C376.579 363.012 375.488 367.474 373.137 371.612C368.55 379.683 361.135 385.82 351.101 389.854C343.145 393.05 333.534 394.936 322.532 395.459C320.379 395.562 318.256 395.608 316.185 395.608Z" fill="#212121"/>
<path d="M375.319 359.469C375.067 359.469 374.815 359.383 374.61 359.206C374.159 358.817 374.111 358.141 374.504 357.693C379.282 352.246 380.094 332.684 364.529 316.256C356.325 307.596 334.232 286.644 325.113 278.037C321.493 274.622 319.179 272.448 319.179 272.448C318.745 272.04 318.727 271.363 319.138 270.933C319.549 270.504 320.235 270.485 320.667 270.893C320.667 270.893 322.982 273.067 326.604 276.485C335.736 285.103 357.863 306.088 366.106 314.789C373.042 322.111 377.7 331.201 379.221 340.382C380.527 348.271 379.345 355.443 376.136 359.1C375.921 359.344 375.621 359.469 375.319 359.469Z" fill="#212121"/>
<path d="M112.047 327.973C111.601 327.973 111.184 327.697 111.026 327.257C110.828 326.699 111.125 326.085 111.688 325.891L111.932 325.805C116.06 324.334 137.188 316.751 147.171 311.984C148.38 311.403 149.601 310.805 150.817 310.203L152.316 309.459C162.022 304.642 171.193 300.092 178.205 302.011C185.823 304.094 190.744 306.751 190.95 306.863C191.474 307.148 191.665 307.799 191.378 308.319C191.091 308.837 190.433 309.028 189.909 308.743C189.86 308.717 184.986 306.09 177.629 304.078C171.413 302.376 162.196 306.951 153.283 311.376L151.782 312.119C150.557 312.725 149.329 313.327 148.11 313.913C138.029 318.727 116.809 326.344 112.657 327.822L112.403 327.91C112.286 327.955 112.166 327.973 112.047 327.973Z" fill="#212121"/>
<path d="M254.533 319.522C254.496 319.522 254.455 319.52 254.42 319.516L225.242 316.588C224.647 316.527 224.215 316.002 224.274 315.413C224.336 314.823 224.862 314.394 225.46 314.454L254.627 317.381C255.179 317.431 255.615 317.89 255.615 318.45C255.611 319.043 255.129 319.522 254.533 319.522Z" fill="#212121"/>
<path d="M287.444 392.936C287.313 392.936 287.179 392.912 287.049 392.861C286.92 392.811 273.955 387.806 260.161 386.205L259.153 386.088C257.773 385.928 256.182 385.743 254.412 385.545C220.947 381.761 197.399 380.945 184.421 383.119C164.067 386.525 134.389 386.483 134.08 386.486C133.483 386.485 132.999 386.004 133.001 385.412C133.003 384.821 133.487 384.344 134.083 384.344C134.091 384.346 134.119 384.344 134.183 384.344C136.068 384.344 164.469 384.285 184.062 381.006C197.24 378.799 220.992 379.609 254.657 383.415C256.428 383.613 258.023 383.799 259.405 383.958L260.413 384.076C274.496 385.712 287.709 390.814 287.841 390.865C288.396 391.082 288.671 391.704 288.452 392.255C288.283 392.677 287.876 392.936 287.444 392.936Z" fill="#212121"/>
<path d="M254.533 385.552C254.447 385.552 254.36 385.543 254.275 385.521C253.695 385.38 253.34 384.8 253.482 384.225C253.504 384.137 255.668 375.335 257.564 363.916C259.307 353.408 261.173 338.475 260.157 326.998C260.154 326.967 260.154 326.936 260.154 326.904C260.154 326.313 260.637 325.83 261.236 325.83C261.812 325.83 262.282 326.275 262.316 326.836C263.346 338.535 261.462 353.654 259.698 364.281C257.79 375.778 255.607 384.647 255.585 384.735C255.461 385.225 255.02 385.552 254.533 385.552Z" fill="#212121"/>
<path d="M157.611 322.035C157.529 322.035 157.444 322.026 157.361 322.006C156.779 321.87 156.419 321.292 156.556 320.715C158.072 314.359 152.316 312.527 151.063 312.207L151.028 312.2C150.443 312.086 150.061 311.523 150.176 310.942C150.291 310.362 150.859 309.982 151.445 310.096L151.508 310.109C151.528 310.113 151.547 310.116 151.567 310.122C152.177 310.274 154.307 310.897 156.136 312.477C157.879 313.985 159.732 316.724 158.663 321.209C158.544 321.703 158.1 322.035 157.611 322.035Z" fill="#212121"/>
<path d="M224.476 314.021C224.1 314.021 223.735 313.827 223.535 313.48C223.241 312.966 223.42 312.312 223.939 312.018C224.482 311.71 237.073 304.318 233.342 286.838C233.327 286.765 233.317 286.691 233.317 286.616C233.317 286.025 233.801 285.54 234.399 285.54C234.942 285.54 235.392 285.933 235.468 286.449C237.566 296.354 234.637 303.272 231.808 307.333C228.728 311.754 225.158 313.797 225.008 313.882C224.841 313.975 224.658 314.021 224.476 314.021Z" fill="#212121"/>
<path d="M331.275 244.414C326.36 244.414 320.744 242.744 314.503 239.417C307.635 235.756 301.532 230.907 297.623 227.485C295.613 225.724 294.443 224.568 294.393 224.52C293.971 224.101 293.971 223.422 294.393 223.003C294.816 222.585 295.501 222.585 295.924 223.003C295.935 223.014 297.1 224.167 299.055 225.878C305.906 231.873 323.223 245.409 336.033 241.613C344.75 239.029 349.995 232.802 354.623 227.307C358.849 222.289 362.841 217.549 368.677 216.728C368.863 216.702 369.042 216.673 369.224 216.645L369.304 216.633C376.516 215.478 381.259 212.408 381.244 211.474C381.24 211.474 380.336 210.005 371.325 210.495C360.989 211.059 356.055 210.456 353.406 210.131C352.661 210.04 351.953 209.953 351.683 209.985C351.644 210.06 351.577 210.214 351.473 210.537C350.547 213.39 347.067 214.552 343.038 215.898C340.3 216.813 337.196 217.848 334.545 219.543C331.727 221.334 329.837 223.613 328.765 226.51C328.559 227.065 327.937 227.349 327.377 227.147C326.816 226.943 326.528 226.326 326.734 225.772C327.975 222.421 330.147 219.794 333.374 217.742C336.25 215.904 339.488 214.822 342.347 213.868C345.821 212.707 348.822 211.705 349.413 209.882C350.161 207.576 351.262 207.71 353.67 208.005C356.255 208.321 361.065 208.909 371.208 208.356C379.262 207.917 383.134 208.837 383.397 211.248C383.767 214.648 375.651 217.789 369.65 218.751L369.57 218.764C369.374 218.795 369.179 218.827 368.983 218.854C363.971 219.559 360.411 223.787 356.285 228.684C351.462 234.41 345.995 240.9 336.653 243.669C334.968 244.165 333.172 244.414 331.275 244.414Z" fill="#212121"/>
<path d="M230.242 224.834C229.67 224.834 229.193 224.389 229.164 223.818C229.101 222.627 229.058 221.479 229.036 220.409C228.945 216.623 229.095 213.442 229.492 210.684C229.701 209.25 229.981 207.897 230.324 206.66C231.987 200.696 235.428 196.444 240.845 193.657C243.315 192.385 246.055 191.59 248.988 191.296C251.644 191.032 254.434 191.173 257.28 191.719C260.68 192.361 263.066 193.369 263.576 193.595C267.2 194.517 270.014 195.348 272.5 196.081C282.473 199.022 285.482 199.911 306.462 196.336C324.505 193.263 331.106 204.612 333.437 211.652C334.647 215.32 334.847 218.175 334.856 218.296C334.895 218.887 334.445 219.397 333.848 219.436C333.259 219.471 332.739 219.028 332.698 218.437C332.696 218.41 332.501 215.713 331.382 212.318C328.802 204.523 322.447 195.785 306.829 198.447C285.35 202.106 281.956 201.104 271.883 198.133C269.395 197.399 266.575 196.567 262.946 195.646C262.881 195.629 262.816 195.605 262.755 195.578C262.733 195.567 260.356 194.478 256.873 193.821C254.231 193.316 251.654 193.184 249.206 193.428C246.548 193.694 244.07 194.412 241.844 195.559C236.921 198.091 233.925 201.8 232.411 207.229C232.093 208.38 231.832 209.647 231.633 210.991C231.254 213.627 231.111 216.693 231.2 220.363C231.22 221.415 231.263 222.539 231.324 223.706C231.355 224.298 230.898 224.803 230.301 224.834C230.281 224.834 230.261 224.834 230.242 224.834Z" fill="#212121"/>
<path d="M249.097 193.434C248.587 193.434 248.134 193.076 248.035 192.56C247.924 191.978 248.311 191.418 248.897 191.308C250.335 191.038 251.617 188.153 251.585 185.254C251.567 183.584 251.094 182.341 250.435 182.232C248.063 181.843 246.811 186.279 246.8 186.325C246.648 186.898 246.053 187.239 245.477 187.087C244.899 186.936 244.554 186.349 244.708 185.776C245.34 183.406 247.331 179.548 250.79 180.117C252.612 180.418 253.718 182.33 253.749 185.232C253.788 188.789 252.241 192.864 249.299 193.415C249.23 193.426 249.164 193.434 249.097 193.434Z" fill="#212121"/>
<path d="M221.84 196.872C221.714 196.872 221.586 196.85 221.46 196.804C220.903 196.597 220.619 195.986 220.827 195.431C220.849 195.371 223.157 189.422 230.042 191.328C230.616 191.488 230.953 192.079 230.792 192.648C230.631 193.217 230.036 193.551 229.46 193.391C224.61 192.047 223.02 195.752 222.855 196.18C222.689 196.608 222.277 196.872 221.84 196.872Z" fill="#212121"/>
<path d="M218.296 205.83C217.516 205.83 216.815 205.678 216.384 205.255C215.919 204.8 215.804 204.154 216.069 203.484C216.488 202.424 216.173 200.607 216.03 200.054C215.882 199.481 216.23 198.896 216.808 198.749C217.384 198.602 217.975 198.947 218.125 199.52C218.192 199.779 218.713 201.899 218.266 203.695C219.148 203.676 220.828 203.32 221.946 202.878C222.5 202.657 223.129 202.924 223.352 203.474C223.574 204.023 223.305 204.648 222.75 204.868C222.714 204.881 220.25 205.83 218.296 205.83Z" fill="#212121"/>
<path d="M225.796 199.032C225.703 199.032 225.61 199.021 225.516 198.996C224.941 198.843 224.599 198.265 224.749 197.695C224.814 197.448 225.193 196.188 226.268 195.738C226.685 195.563 227.348 195.451 228.15 195.907C228.669 196.201 228.849 196.856 228.552 197.37C228.256 197.885 227.595 198.063 227.076 197.769C227.074 197.767 227.072 197.767 227.07 197.765C226.989 197.872 226.887 198.077 226.84 198.243C226.707 198.718 226.27 199.032 225.796 199.032Z" fill="#212121"/>
<path d="M206.429 183.947C206.237 183.947 206.059 183.936 205.892 183.914C205.244 183.828 204.756 183.452 204.554 182.884C204.269 182.076 204.284 180.828 208.115 176.245C209.166 174.988 210.229 173.811 210.978 172.999C210.259 172.57 209.49 171.92 209.179 171.011C208.966 170.394 208.884 169.417 209.697 168.274C211.154 166.217 214.6 164.866 216.547 164.238C216.241 163.546 215.998 162.663 216.178 161.796C216.347 160.989 216.847 160.329 217.627 159.891C219.958 158.582 227.782 158.235 228.667 158.2C229.258 158.178 229.768 158.637 229.792 159.228C229.816 159.819 229.351 160.318 228.754 160.342C225.616 160.467 220.108 160.963 218.696 161.756C218.398 161.925 218.327 162.09 218.298 162.23C218.168 162.85 218.742 163.867 219.024 164.236C219.243 164.523 219.302 164.897 219.183 165.235C219.065 165.573 218.783 165.832 218.433 165.92C216.93 166.304 212.749 167.699 211.469 169.507C211.118 169.999 211.202 170.24 211.228 170.319C211.426 170.895 212.551 171.452 213.108 171.622C213.466 171.733 213.742 172.017 213.836 172.377C213.931 172.737 213.831 173.119 213.571 173.387C210.648 176.418 207.519 180.195 206.785 181.784C207.348 181.731 208.286 181.544 209.82 181.034C212.947 179.989 216.51 178.263 216.545 178.245C217.082 177.984 217.729 178.203 217.992 178.735C218.255 179.266 218.035 179.908 217.497 180.169C217.347 180.242 213.775 181.974 210.509 183.064C208.715 183.661 207.398 183.947 206.429 183.947ZM206.179 181.79C206.181 181.79 206.181 181.79 206.179 181.79C206.181 181.79 206.181 181.79 206.179 181.79Z" fill="#212121"/>
<path d="M209.003 216.03C208.486 216.03 208.03 215.663 207.939 215.144C207.921 215.034 207.48 212.441 208.349 210.372C208.595 209.761 208.953 209.23 209.407 208.806C211.319 207.018 214.544 208.477 215.93 209.247C217.484 208.288 221.683 206.098 225.021 208.022C226.229 208.716 227.506 209.529 228.2 210.37L230.277 209.803C230.853 209.647 231.448 209.981 231.607 210.552C231.767 211.123 231.428 211.712 230.852 211.87L227.902 212.676C227.478 212.792 227.028 212.643 226.759 212.298C226.629 212.133 226.555 211.938 226.538 211.74C226.379 211.54 225.805 210.948 223.937 209.876C221.099 208.24 216.641 211.349 216.597 211.38C216.234 211.642 215.745 211.653 215.37 211.411C214.035 210.552 211.689 209.625 210.894 210.366C210.67 210.576 210.489 210.849 210.355 211.182C209.725 212.682 210.072 214.758 210.075 214.778C210.175 215.36 209.781 215.915 209.192 216.016C209.125 216.027 209.064 216.03 209.003 216.03ZM226.674 211.108C226.655 211.139 226.64 211.171 226.626 211.202C226.64 211.169 226.657 211.138 226.674 211.108Z" fill="#212121"/>
<path d="M193.766 217.33C193.182 217.33 192.701 216.869 192.686 216.286C192.66 215.305 193.029 214.442 193.755 213.791C194.931 212.733 196.918 212.392 198.62 212.314C198.238 211.613 198.112 210.862 198.333 210.192C198.626 209.296 199.587 208.508 201.403 208.984C204.023 209.671 209.297 209.711 209.349 209.711C209.946 209.715 210.427 210.198 210.424 210.791C210.42 211.38 209.936 211.855 209.342 211.855C209.34 211.855 209.336 211.855 209.334 211.855C209.106 211.854 203.73 211.811 200.849 211.057C200.651 211.005 200.502 210.987 200.404 210.985C200.491 211.338 200.945 212.092 201.979 212.489C202.489 212.685 202.77 213.225 202.637 213.75C202.503 214.275 201.992 214.617 201.455 214.552C199.641 214.33 196.339 214.36 195.206 215.38C194.948 215.612 194.839 215.874 194.848 216.231C194.863 216.822 194.392 217.314 193.796 217.33C193.785 217.33 193.775 217.33 193.766 217.33Z" fill="#212121"/>
<path d="M407.932 217.372C407.343 217.372 406.86 216.902 406.85 216.317C406.841 215.726 407.319 215.237 407.916 215.23C412.14 215.168 413.646 213.418 415.73 210.994C418.252 208.064 421.389 204.418 430.206 202.558C442.552 199.949 452.014 194.829 453.518 192.941C453.368 192.914 453.162 192.89 452.885 192.877C445.998 192.591 421.67 193.755 391.325 197.159C361.268 200.531 333.132 212.84 332.852 212.963C332.307 213.201 331.666 212.961 331.423 212.419C331.181 211.877 331.425 211.244 331.972 211.004C332.255 210.879 360.698 198.436 391.082 195.027C421.542 191.61 446.026 190.446 452.975 190.735C455.239 190.828 455.795 191.766 455.86 192.539C456.003 194.216 453.372 196.349 448.038 198.877C442.948 201.289 436.614 203.395 430.658 204.653C422.56 206.362 419.806 209.56 417.378 212.384C415.204 214.909 413.151 217.294 407.949 217.372C407.944 217.372 407.938 217.372 407.932 217.372Z" fill="#212121"/>
<path d="M268.76 313.335C255.192 313.335 248.141 309.648 245.938 308.231C245.519 307.963 245.299 307.79 245.275 307.772C244.808 307.403 244.73 306.729 245.102 306.266C245.473 305.805 246.151 305.727 246.62 306.092C246.622 306.094 246.787 306.22 247.114 306.43C258.17 313.538 278.998 310.617 283.06 309.96C303.459 306.659 313.115 297.689 314.412 292.811C314.605 292.085 314.566 291.487 314.316 291.287C313.85 290.916 313.776 290.242 314.149 289.779C314.523 289.319 315.203 289.243 315.67 289.614C316.233 290.062 317.091 291.145 316.504 293.356C315.012 298.968 304.969 308.587 283.411 312.075C277.86 312.977 272.991 313.335 268.76 313.335Z" fill="#212121"/>
<path d="M309.469 287.079C308.95 287.079 308.493 286.708 308.404 286.183C308.306 285.599 308.704 285.046 309.293 284.949C309.347 284.94 314.657 284.049 319.568 282.353C323.951 280.844 324.768 277.199 324.8 277.045C324.922 276.469 325.493 276.096 326.075 276.212C326.658 276.329 327.036 276.889 326.921 277.468C326.881 277.669 325.867 282.454 320.279 284.378C315.19 286.137 309.873 287.027 309.651 287.064C309.588 287.075 309.528 287.079 309.469 287.079Z" fill="#212121"/>
<path d="M67.4677 390.873C53.7003 390.873 44.0107 386.885 42.1525 382.413C41.6726 381.258 41.2687 378.987 43.9551 376.741L44.661 376.152C51.5253 370.433 60.0662 363.315 55.5456 352.016C52.9796 345.603 50.9287 334.852 50.3192 324.624C49.906 317.682 49.8412 305.146 54.0394 299.165C59.9939 290.679 66.9675 288.2 68.7776 287.677C69.9003 286.159 74.6543 281.28 87.8696 284.126C95.3675 285.746 94.9747 290.084 94.9543 290.267C94.8895 290.855 94.3578 291.281 93.7612 291.215C93.1758 291.151 92.7496 290.635 92.8015 290.055C92.8089 289.904 92.8367 287.391 87.4102 286.219C73.9336 283.313 70.4302 289.07 70.3968 289.127C70.2468 289.388 69.9855 289.585 69.6891 289.651C69.6169 289.667 62.0671 291.477 55.8161 300.385C49.7059 309.09 52.4442 338.449 57.5558 351.223C62.6526 363.959 53.0593 371.953 46.0543 377.79L45.3502 378.377C43.4697 379.949 43.9829 381.186 44.1534 381.594C45.7078 385.335 56.6961 389.81 73.2908 388.49C75.0008 388.354 76.7294 388.218 78.4598 388.082C86.9933 387.414 95.8158 386.723 102.576 385.892C111.345 384.814 113.598 383.839 114.176 383.402C114.169 383.395 114.159 383.389 114.152 383.382C113.696 382.998 113.641 382.323 114.026 381.871C114.413 381.419 115.095 381.364 115.551 381.746C116.605 382.631 116.518 383.51 116.373 383.957C115.881 385.471 113.542 386.666 103.429 387.946C96.5403 388.816 87.4361 389.529 78.6302 390.219C76.8998 390.355 75.1731 390.489 73.4631 390.627C71.3917 390.796 69.389 390.873 67.4677 390.873Z" fill="#212121"/>
<path d="M91.6936 354.743C91.1767 354.743 90.721 354.376 90.6302 353.855C88.9164 344.067 79.7826 339.42 77.8558 338.543C75.5955 339.294 66.6415 341.908 64.2496 337.048C63.314 335.142 63.6957 333.747 64.1792 332.912C65.452 330.716 68.7961 329.908 70.6155 329.625C69.7744 322.625 73.6873 312.529 76.5867 305.049C76.948 304.118 77.2908 303.233 77.602 302.409C80.2588 295.401 75.7345 288.046 75.6882 287.973C75.3732 287.47 75.5288 286.809 76.0346 286.497C76.5423 286.185 77.2074 286.337 77.5242 286.838C77.7354 287.174 82.6654 295.148 79.627 303.162C79.3139 303.992 78.9674 304.88 78.6043 305.817C75.8049 313.036 71.577 323.945 72.9184 330.336C72.9814 330.639 72.911 330.953 72.7239 331.199C72.5367 331.445 72.2514 331.599 71.9402 331.623C70.7137 331.716 66.9953 332.348 66.0504 333.98C65.93 334.19 65.5613 334.827 66.1912 336.108C67.6697 339.112 75.0601 337.267 77.5335 336.384C77.7836 336.295 78.0559 336.299 78.3023 336.396C78.8063 336.596 90.6469 341.423 92.7589 353.487C92.8608 354.071 92.4662 354.626 91.8789 354.727C91.8178 354.738 91.7548 354.743 91.6936 354.743Z" fill="#212121"/>
<path d="M55.3826 312.571C54.8898 312.571 54.4433 312.235 54.3284 311.739C54.195 311.163 54.5582 310.586 55.1418 310.454C56.3534 310.179 57.6392 309.531 58.8824 308.905C59.0991 308.794 59.314 308.686 59.5252 308.581C62.6452 307.036 65.2519 305.051 68.0106 302.952C68.961 302.229 69.943 301.482 70.949 300.753C71.4307 300.404 72.1088 300.507 72.4608 300.984C72.8128 301.462 72.709 302.134 72.2273 302.482C71.2398 303.198 70.269 303.936 69.3297 304.652C66.6118 306.722 63.7994 308.86 60.4942 310.498C60.2867 310.601 60.0773 310.706 59.8643 310.814C58.5674 311.468 57.0982 312.209 55.6253 312.543C55.5438 312.562 55.4623 312.571 55.3826 312.571Z" fill="white"/>
<path d="M74.973 300.219C74.7229 300.219 74.4691 300.133 74.2653 299.957C73.8133 299.569 73.7651 298.892 74.156 298.445C74.3135 298.264 74.4839 298.095 74.6525 297.924C74.8489 297.727 75.0342 297.542 75.1768 297.356C75.5363 296.883 76.2143 296.787 76.6905 297.141C77.1685 297.496 77.2648 298.168 76.9073 298.642C76.6757 298.947 76.4163 299.206 76.1884 299.435C76.0532 299.571 75.9179 299.705 75.7919 299.848C75.577 300.094 75.275 300.219 74.973 300.219Z" fill="white"/>
<path d="M52.6814 378.317C52.4572 378.317 52.2311 378.247 52.0366 378.105C51.5568 377.753 51.4567 377.081 51.8143 376.605C52.9963 375.03 54.3747 373.637 55.7087 372.289C57.515 370.462 59.2214 368.737 60.446 366.625C61.9967 363.952 61.9911 361.369 61.9856 358.099V357.524C61.9856 356.933 62.4691 356.452 63.0676 356.452C63.666 356.452 64.1495 356.931 64.1495 357.524V358.095C64.1551 361.543 64.1607 364.521 62.3228 367.694C60.961 370.044 59.0769 371.948 57.2557 373.791C55.9736 375.087 54.6471 376.429 53.554 377.887C53.3391 378.166 53.013 378.317 52.6814 378.317Z" fill="white"/>
<path d="M61.1186 353.448C60.6499 353.448 60.2182 353.144 60.0811 352.675C59.7995 351.717 59.4308 350.762 59.0732 349.841C58.2265 347.658 57.3502 345.401 57.4447 342.693C57.4651 342.102 57.9635 341.639 58.5619 341.658C59.1584 341.678 59.6253 342.174 59.6049 342.765C59.5271 345.036 60.2867 346.995 61.0908 349.07C61.465 350.033 61.8504 351.03 62.1579 352.075C62.3247 352.644 61.9949 353.239 61.4206 353.402C61.3205 353.435 61.2186 353.448 61.1186 353.448Z" fill="white"/>
</g>
<defs>
<clipPath id="clip0_1_1780">
<rect width="544" height="264.997" fill="white" transform="translate(0 157.474)"/>
</clipPath>
</defs>
</svg>
