<svg width="60" height="55" viewBox="0 0 60 55" fill="none" xmlns="http://www.w3.org/2000/svg">
<g clip-path="url(#clip0_1_123)">
<path d="M59.7726 41.9507C59.7512 42.0765 59.7228 42.2093 59.6944 42.3351C59.6802 42.3211 59.666 42.3071 59.6446 42.2931C59.602 42.2512 59.5523 42.2163 59.5096 42.1743C59.4741 42.1394 59.4385 42.1114 59.403 42.0765C59.3817 42.0555 59.3533 42.0345 59.332 42.0066C59.3248 41.9996 59.3177 41.9926 59.3106 41.9856C59.2893 42.1394 59.2609 42.2931 59.2325 42.4469C59.2822 42.4958 59.3248 42.5378 59.3746 42.5797C59.4457 42.6496 59.5167 42.7125 59.5949 42.7824C59.4457 43.3765 59.2538 43.9636 59.0193 44.5368C58.9198 44.4808 58.8203 44.4319 58.7137 44.376C58.6711 44.5158 58.6213 44.6486 58.5716 44.7814C58.6639 44.8373 58.7563 44.8862 58.8487 44.9352C58.4152 45.9277 57.8609 46.8852 57.2071 47.7589C57.1361 47.724 57.065 47.696 56.9939 47.661C56.8944 47.7589 56.7878 47.8428 56.667 47.9127C56.7665 47.9616 56.8731 48.0175 56.9726 48.0664C56.9868 48.0734 57.0081 48.0804 57.0223 48.0944C56.9939 48.1014 56.9584 48.1154 56.93 48.1223C56.667 48.1992 56.4041 48.2761 56.1411 48.353C55.4447 48.5557 54.7412 48.7724 54.0447 48.9821H54.0376C53.6397 49.1009 53.2417 49.2267 52.8437 49.3455C52.5666 49.4294 52.2965 49.5132 52.0194 49.5901C51.5717 49.7229 51.1169 49.8557 50.6692 49.9885C50.4844 50.0444 50.2996 50.0934 50.1077 50.1493C49.923 50.2052 49.7311 50.2541 49.5463 50.3101C45.787 51.3585 41.9921 52.2951 38.1546 53.0289C30.7781 54.4408 23.1813 55.0209 15.7053 54.0704C12.6921 53.686 9.77137 53.015 6.88614 52.1413C6.76533 52.1063 6.64452 52.0714 6.52371 52.0295C6.45975 52.0504 6.39579 52.0504 6.33183 52.0574C6.14707 52.0714 5.95519 52.0784 5.76332 52.0784C4.80394 52.0644 3.81614 51.7848 3.03443 51.3515C1.53496 50.5197 0.746142 48.989 0.575587 47.3395C0.397925 45.5992 0.753248 43.8588 1.08725 42.1603C1.471 40.1753 1.84765 38.1973 2.25982 36.2193C3.92274 28.2513 5.79174 20.3253 7.68917 12.4062C8.65565 8.35237 9.66477 4.29848 10.5531 0.223633C10.617 0.223633 10.6881 0.223633 10.7521 0.223633C10.8089 0.223633 10.8587 0.223633 10.9155 0.223633C10.9724 0.223633 11.0221 0.223633 11.079 0.223633H11.0932C11.1429 0.223633 11.1998 0.230622 11.2566 0.230622C11.2708 0.230622 11.2922 0.230622 11.3135 0.230622C11.3988 0.237612 11.484 0.237612 11.5693 0.244601C11.5906 0.244601 11.6119 0.244601 11.6262 0.251591C11.6688 0.25858 11.7185 0.25858 11.7612 0.26557C11.818 0.272559 11.8749 0.279548 11.9246 0.279548C11.9815 0.286538 12.0383 0.293527 12.0881 0.300517C12.152 0.307506 12.216 0.314496 12.2729 0.328475C12.3439 0.335464 12.415 0.349443 12.486 0.363422C12.6708 0.39138 12.8556 0.426327 13.0404 0.468264C13.1469 0.489232 13.2535 0.51719 13.3601 0.545148C13.4383 0.566116 13.5236 0.587084 13.6018 0.608053C13.7226 0.643 13.8363 0.677947 13.9571 0.712894C14.021 0.733863 14.085 0.754831 14.1561 0.7758C14.22 0.796768 14.2769 0.817736 14.3337 0.838705C14.3906 0.859673 14.4474 0.880641 14.5043 0.90161C14.5114 0.908599 14.5256 0.908599 14.5327 0.915589C14.5825 0.936557 14.6322 0.957525 14.6891 0.978494C14.7388 0.999462 14.7957 1.02043 14.8454 1.0414C14.9094 1.06936 14.9733 1.09731 15.0444 1.13226C16.3804 1.74733 17.5245 2.65596 18.5123 3.71836C17.8514 5.4168 17.3042 7.14319 16.9489 8.94647C16.487 11.2949 16.2525 13.6853 16.2525 16.0757C16.2525 18.5011 16.487 20.9194 16.9702 23.2958C17.4677 25.7701 18.2778 28.1605 18.9387 30.5858C19.3154 31.9697 19.6494 33.3676 19.8128 34.7865C19.9336 35.793 19.9478 36.7994 19.9265 37.8059C19.6067 37.8898 19.2941 37.9876 18.9814 38.0995C17.1763 38.7425 15.3855 40.1893 15.2291 42.1883C15.2291 42.1953 15.2434 42.2023 15.2434 42.1883C15.6413 40.1404 17.5032 38.8054 19.4504 38.2812C19.6067 38.2393 19.7631 38.2043 19.9194 38.1624C20.0473 38.1344 20.1824 38.1065 20.3103 38.0785C21.1986 37.9038 22.1153 37.8059 23.0107 37.6871C24.1833 37.5333 25.3346 37.3167 26.4787 37.0231C28.767 36.422 30.9842 35.5763 33.2867 35.0241C35.6816 34.444 38.1404 34.2483 40.5851 34.0386C42.9302 33.8429 45.2824 33.6332 47.5707 33.088C49.6956 32.5848 51.7351 31.816 53.7747 31.0541C53.8102 31.0401 53.8529 31.0261 53.8884 31.0122C53.9737 30.9842 54.0518 30.9493 54.1371 30.9213C55.1178 31.096 56.0559 31.5224 56.8589 32.1375C58.4436 33.3397 59.3533 35.101 59.7583 37.0021C60.0923 38.6377 60.071 40.371 59.7726 41.9507Z" fill="#F0A771"/>
<path d="M59.6518 42.3001C59.6091 42.2581 59.5594 42.2232 59.5167 42.1813C59.4812 42.1463 59.4457 42.1184 59.4101 42.0834C59.3888 42.0624 59.3604 42.0415 59.3391 42.0135C59.3107 42.1603 59.2751 42.3071 59.2325 42.4539C59.2822 42.5028 59.3249 42.5447 59.3746 42.5867C59.4457 42.6565 59.5167 42.7195 59.5949 42.7893C59.6091 42.7264 59.6233 42.6635 59.6447 42.6076C59.666 42.5237 59.6873 42.4329 59.7015 42.342C59.6802 42.328 59.666 42.3141 59.6518 42.3001ZM58.6071 44.327C58.5574 44.4598 58.5005 44.5856 58.4437 44.7184C58.4792 44.7394 58.5147 44.7604 58.5503 44.7813C58.6498 44.8373 58.7421 44.8932 58.8416 44.9491C58.8985 44.8163 58.9553 44.6835 59.0122 44.5507C58.8772 44.4738 58.7421 44.3969 58.6071 44.327ZM56.7665 47.5701C56.6955 47.668 56.6173 47.7658 56.5391 47.8637C56.6813 47.9336 56.8234 48.0035 56.9655 48.0734C57.0437 47.9755 57.1219 47.8707 57.2 47.7658C57.0579 47.7029 56.9087 47.64 56.7665 47.5701ZM56.127 48.353C53.9311 49.003 51.7423 49.6949 49.5321 50.31C45.7728 51.3584 41.978 52.295 38.1405 53.0289C30.7639 54.4408 23.1671 55.0209 15.6911 54.0703C12.6779 53.6859 9.75718 53.0149 6.87195 52.1412C6.75114 52.1063 6.63033 52.0713 6.50952 52.0294C6.45978 52.0504 6.39582 52.0504 6.33186 52.0574C6.14709 52.0713 5.95522 52.0783 5.76334 52.0783C4.80397 52.0644 3.81617 51.7848 3.03445 51.3514C1.53499 50.5197 0.746168 48.989 0.575612 47.3395C0.39795 45.5991 0.753274 43.8587 1.08728 42.1603C1.47103 40.1753 1.84767 38.1973 2.25985 36.2193C3.92276 28.2513 5.79177 20.3253 7.6892 12.4062C8.65568 8.35232 9.6648 4.29844 10.5531 0.223588C10.6171 0.223588 10.6881 0.223588 10.7521 0.223588C10.8089 0.223588 10.8587 0.223588 10.9155 0.223588C10.9724 0.223588 11.0221 0.223588 11.079 0.223588H11.0932C11.1429 0.223588 11.1998 0.230577 11.2566 0.230577C11.2709 0.230577 11.2922 0.230577 11.3135 0.230577C11.3988 0.237567 11.4841 0.237567 11.5693 0.244556C11.5907 0.244556 11.612 0.244556 11.6262 0.251546C11.6688 0.258535 11.7186 0.258535 11.7612 0.265525C11.8181 0.272514 11.8749 0.272514 11.9247 0.279504C11.9815 0.286493 12.0384 0.293482 12.0881 0.300472C12.1521 0.307461 12.216 0.314451 12.2729 0.32843C12.3439 0.335419 12.415 0.349398 12.4861 0.363377C12.6708 0.391335 12.8556 0.426282 13.0404 0.468219C13.147 0.489187 13.2536 0.517145 13.3602 0.545103C13.4383 0.566071 13.5236 0.587039 13.6018 0.608008C13.7226 0.642955 13.8363 0.677902 13.9571 0.71285C14.0211 0.733818 14.085 0.754786 14.1561 0.775755C14.2201 0.796723 14.2769 0.817691 14.3338 0.83866C14.3906 0.859628 14.4475 0.880596 14.5043 0.901565C14.5114 0.908554 14.5256 0.908554 14.5327 0.915544C14.5825 0.936512 14.6322 0.95748 14.6891 0.978449C14.7388 0.999417 14.7957 1.02039 14.8454 1.04135C14.9094 1.06931 14.9733 1.09727 15.0444 1.13222C16.3804 1.74729 17.5246 2.65592 18.5124 3.71831C17.8515 5.41675 17.3043 7.14315 16.9489 8.94642C16.487 11.2949 16.2525 13.6853 16.2525 16.0757C16.2525 18.501 16.487 20.9194 16.9703 23.2958C17.4677 25.77 18.2779 28.1604 18.9388 30.5858C19.3154 31.9697 19.6494 33.3676 19.8129 34.7864C19.9337 35.7929 19.9479 36.7994 19.9266 37.8059C19.6068 37.8897 19.2941 37.9876 18.9814 38.0994C17.1763 38.7425 15.3855 40.1893 15.2292 42.1883C15.2292 42.1952 15.2434 42.2022 15.2434 42.1883C15.6413 40.1403 17.5032 38.8054 19.4504 38.2812C19.6068 38.2392 19.7631 38.2043 19.9194 38.1623C20.0474 38.1344 20.1824 38.1064 20.3103 38.0785C21.1986 37.9037 22.1154 37.8059 23.0108 37.687C24.1833 37.5333 25.3346 37.3166 26.4787 37.0231C28.767 36.422 30.9842 35.5762 33.2867 35.0241C35.6816 34.4439 38.1405 34.2482 40.5851 34.0386C42.9302 33.8428 45.2825 33.6332 47.5708 33.088C49.6956 32.5847 51.7351 31.8159 53.7747 31.0541C53.8102 31.0401 53.8529 31.0261 53.8884 31.0121C53.9737 30.9842 54.0519 30.9492 54.1371 30.9213C53.7889 30.8584 53.4336 30.8304 53.0854 30.8304C52.9361 30.8863 52.794 30.9352 52.6448 30.9912C51.522 31.4035 50.3991 31.8089 49.2479 32.1514C46.8246 32.8853 44.3444 33.2418 41.8216 33.4724C39.3272 33.6961 36.8187 33.8428 34.3598 34.3181C31.8939 34.8004 29.5416 35.6741 27.1325 36.366C25.8036 36.7505 24.4605 37.037 23.0889 37.2327C22.1722 37.3585 21.2626 37.4844 20.3601 37.694C20.5804 35.8069 20.2037 33.8219 19.7773 32.0116C19.1946 29.5373 18.3489 27.14 17.7378 24.6727C16.5652 19.9199 16.3875 14.9224 17.1692 10.0927C17.5104 8.00285 17.9794 5.88504 18.6332 3.85111C18.6403 3.82316 18.6545 3.78821 18.6616 3.76025C18.6971 3.65541 18.7327 3.54358 18.7682 3.43874C18.7327 3.3968 18.6971 3.35486 18.6616 3.31293C17.7022 2.19461 16.4444 1.32093 15.0728 0.747797C13.6231 0.146704 12.1165 -0.0909374 10.6029 0.00691497C10.5531 0.00691497 10.4963 0.0139044 10.4465 0.0208939C10.4323 0.06982 10.4181 0.118746 10.4039 0.167672C10.3968 0.181651 10.3968 0.19563 10.3897 0.216599C9.3379 3.97692 8.39274 7.7722 7.45468 11.5605C6.41714 15.7262 5.42223 19.8919 4.45575 24.0716C3.49637 28.2443 2.56543 32.424 1.69844 36.6177C1.27205 38.6865 0.824339 40.7484 0.426376 42.8173C0.106585 44.4878 -0.170568 46.2212 0.127904 47.9196C0.41927 49.618 1.39286 51.1208 2.9705 51.9106C4.08621 52.4697 5.22325 52.5746 6.35318 52.309C8.85466 53.2316 11.477 53.8537 14.085 54.28C17.7378 54.8741 21.4402 55.0908 25.1427 54.9929C32.9101 54.7832 40.578 53.2526 48.0398 51.2046C50.1646 50.6245 52.2681 49.9955 54.3788 49.3664C54.7625 49.2546 55.1392 49.1358 55.5229 49.0239C55.8072 48.9401 56.0914 48.8562 56.3757 48.7653C56.5676 48.5626 56.7452 48.353 56.9158 48.1363C56.6599 48.1992 56.397 48.2761 56.127 48.353Z" fill="#C47B4E"/>
<path opacity="0.1" d="M16.0819 2.78864C15.0586 3.18005 9.53686 18.8853 8.76936 30.9002C8.4922 35.2896 9.20285 39.2666 11.2779 40.2381C13.353 41.2027 14.6606 36.373 14.9875 33.9057C15.6413 36.6945 16.622 37.1278 17.3895 36.9111C18.1499 36.6945 18.6971 32.9411 17.4961 28.6496C16.2951 24.3581 14.8809 17.9208 15.8616 11.5884C16.5794 6.94736 18.0433 2.04077 16.0819 2.78864Z" fill="white"/>
<path opacity="0.1" d="M19.1377 39.7001C15.9683 41.734 16.9561 45.3895 18.8108 46.5707C20.6656 47.7519 45.4317 44.7465 49.9017 40.1334C54.3717 35.5204 43.4632 35.3037 38.8795 35.9468C34.2959 36.5898 21.6463 38.0925 19.1377 39.7001Z" fill="white"/>
<path opacity="0.05" d="M59.7726 41.9507C59.7512 42.0765 59.7228 42.2093 59.6944 42.3351C59.6802 42.3211 59.666 42.3071 59.6446 42.2931C59.602 42.2512 59.5523 42.2163 59.5096 42.1743C59.4741 42.1394 59.4385 42.1114 59.403 42.0765C59.3817 42.0555 59.3533 42.0345 59.332 42.0066C59.3248 41.9996 59.3177 41.9926 59.3106 41.9856C59.2893 42.1394 59.2609 42.2931 59.2325 42.4469C59.2822 42.4958 59.3248 42.5378 59.3746 42.5797C59.4457 42.6496 59.5167 42.7125 59.5949 42.7824C59.4457 43.3765 59.2538 43.9636 59.0193 44.5368C58.9198 44.4808 58.8203 44.4319 58.7137 44.376C58.6711 44.5158 58.6213 44.6486 58.5716 44.7814C58.6639 44.8373 58.7563 44.8862 58.8487 44.9352C58.4152 45.9277 57.8609 46.8852 57.2071 47.7589C57.1361 47.724 57.065 47.696 56.9939 47.661C56.8944 47.7589 56.7878 47.8428 56.667 47.9127C56.7665 47.9616 56.8731 48.0175 56.9726 48.0664C56.9868 48.0734 57.0081 48.0804 57.0223 48.0944C56.9939 48.1014 56.9584 48.1154 56.93 48.1223C56.667 48.1992 56.4041 48.2761 56.1411 48.353C55.4447 48.5557 54.7412 48.7724 54.0447 48.9821H54.0376C53.6397 49.1009 53.2417 49.2267 52.8437 49.3455C52.5666 49.4294 52.2965 49.5132 52.0194 49.5901C51.5717 49.7229 51.1169 49.8557 50.6692 49.9885C50.4844 50.0444 50.2996 50.0934 50.1077 50.1493C49.923 50.2052 49.7311 50.2541 49.5463 50.3101C45.787 51.3585 41.9921 52.2951 38.1546 53.0289C30.7781 54.4408 23.1813 55.0209 15.7053 54.0704C12.6921 53.686 9.77137 53.015 6.88614 52.1413C6.76533 52.1063 6.64452 52.0714 6.52371 52.0295C6.45975 52.0504 6.39579 52.0504 6.33183 52.0574C6.14707 52.0714 5.95519 52.0784 5.76332 52.0784C4.80394 52.0644 3.81614 51.7848 3.03443 51.3515C1.53496 50.5197 0.746142 48.989 0.575587 47.3395C0.397925 45.5992 0.753248 43.8588 1.08725 42.1603C1.471 40.1753 1.84765 38.1973 2.25982 36.2193C3.92274 28.2513 5.79174 20.3253 7.68917 12.4062C8.65565 8.35237 9.66477 4.29848 10.5531 0.223633C10.617 0.223633 10.6881 0.223633 10.7521 0.223633C10.8089 0.223633 10.8587 0.223633 10.9155 0.223633C10.9724 0.223633 11.0221 0.223633 11.079 0.223633H11.0932C11.1429 0.223633 11.1998 0.230622 11.2566 0.230622C11.2708 0.230622 11.2922 0.230622 11.3135 0.230622C11.3988 0.237612 11.484 0.237612 11.5693 0.244601C11.5906 0.244601 11.6119 0.244601 11.6262 0.251591C11.6688 0.25858 11.7185 0.25858 11.7612 0.26557C11.818 0.272559 11.8749 0.279548 11.9246 0.279548C11.9815 0.286538 12.0383 0.293527 12.0881 0.300517C10.0556 7.72331 2.43748 35.8069 1.67709 42.4958C0.802994 50.2192 3.53188 50.8622 4.95318 51.2886C6.37447 51.7149 7.78866 48.8213 7.78866 48.8213C7.78866 48.8213 21.2057 51.9316 28.7386 51.9316C32.0644 51.9316 35.3973 51.4563 38.6592 50.8692C42.1272 50.2471 45.5738 49.4573 48.9423 48.4159C51.3869 47.661 54.0376 46.8852 55.8498 45.019C56.7168 44.1244 57.4203 43.083 58.0457 42.0066C58.9482 40.4619 59.7299 38.7705 59.7583 37.0021C60.0923 38.6377 60.071 40.371 59.7726 41.9507Z" fill="black"/>
<path d="M59.7726 41.9505C59.7513 42.0764 59.7229 42.2092 59.6944 42.335C59.6731 42.4258 59.6518 42.5097 59.6376 42.6006C59.6234 42.6635 59.6091 42.7264 59.5878 42.7823C59.4386 43.3764 59.2467 43.9635 59.0122 44.5366C58.9625 44.6694 58.9056 44.8022 58.8417 44.935C58.4082 45.9275 57.8538 46.8851 57.2001 47.7588C57.1219 47.8636 57.0437 47.9615 56.9655 48.0663C56.9513 48.0873 56.9371 48.1013 56.9229 48.1222C56.7523 48.3389 56.5676 48.5486 56.3828 48.7513C56.0985 48.8352 55.8143 48.926 55.53 49.0099C55.7361 48.8002 55.9422 48.5765 56.1341 48.3529C56.2762 48.1921 56.4112 48.0244 56.5463 47.8566C56.6244 47.7588 56.7026 47.6609 56.7737 47.5631C56.9087 47.3883 57.0366 47.2136 57.1574 47.0319C57.6549 46.305 58.0884 45.5222 58.4508 44.7114C58.5076 44.5856 58.5645 44.4528 58.6142 44.32C58.7208 44.0614 58.8203 43.7958 58.9127 43.5302C58.9767 43.3414 59.0406 43.1527 59.0904 42.964C59.1401 42.7893 59.1899 42.6145 59.2325 42.4468C59.268 42.3 59.3036 42.1532 59.3391 42.0065C59.3462 41.9575 59.3604 41.9086 59.3675 41.8667C59.7086 40.2172 59.7442 38.5187 59.396 36.8832C58.998 35.017 58.0457 33.2137 56.4183 32.1094C55.6295 31.5712 54.7199 31.2077 53.7747 31.061C53.3981 31.0051 53.0214 30.9841 52.6377 30.9981C52.7869 30.9421 52.9291 30.8862 53.0783 30.8373C53.4336 30.8303 53.7818 30.8653 54.1301 30.9282C55.1107 31.1029 56.0488 31.5293 56.8518 32.1443C59.7868 34.374 60.4122 38.5257 59.7726 41.9505Z" fill="#C47B4E"/>
</g>
<defs>
<clipPath id="clip0_1_123">
<rect width="60" height="55" fill="white"/>
</clipPath>
</defs>
</svg>
