<svg width="58" height="55" viewBox="0 0 58 55" fill="none" xmlns="http://www.w3.org/2000/svg">
<g clip-path="url(#clip0_1_140)">
<path d="M57.0729 43.4888C56.808 38.3187 55.637 33.3565 53.9014 28.4983C52.2913 23.9727 50.4371 19.5718 49.9004 14.7552C49.5171 11.2761 49.7053 7.79009 50.3953 4.38724C48.4367 3.72192 46.471 3.08432 44.4566 2.55067C43.655 2.33583 42.8395 2.13484 42.017 1.96158C39.194 1.3517 36.378 0.984391 33.5481 0.721034C32.0425 0.582425 30.523 0.464607 29.0034 0.374512C27.6372 0.464607 26.285 0.554703 24.9258 0.679451C21.9355 0.942808 18.9662 1.31705 15.9829 1.96158C14.9931 2.1695 14.0242 2.41206 13.0623 2.68235C11.2222 3.18827 9.40987 3.77736 7.60456 4.38724C8.29462 7.79009 8.48282 11.2692 8.09945 14.7552C7.56274 19.5718 5.70863 23.9657 4.09849 28.4983C2.35591 33.3634 1.19187 38.3256 0.920027 43.4888C0.892146 43.9947 0.878205 44.5076 0.871235 45.0135C0.850324 46.2402 0.892146 47.4599 0.975789 48.6728C1.02458 48.6936 1.07337 48.7144 1.1152 48.7282C6.83783 51.0776 12.7696 52.7063 19.008 53.5518C22.3328 54.0023 25.6577 54.231 28.9895 54.3627C28.9965 54.3696 29.0034 54.3696 29.0034 54.3627C32.3352 54.2379 35.6601 54.0023 38.9849 53.5518C45.2721 52.6994 51.2527 51.0499 57.0171 48.6728C57.038 48.4163 57.052 48.153 57.0659 47.8966C57.0868 47.4877 57.1008 47.0788 57.1077 46.6768C57.1426 45.6234 57.1287 44.5561 57.0729 43.4888ZM28.4458 30.3487C28.4179 30.3903 28.3343 30.3695 28.3552 30.314C28.4528 30.0784 28.5364 29.8497 28.6131 29.6279C28.2855 29.8081 27.8045 29.7319 27.5397 29.42C26.9054 28.6646 27.3584 27.2161 27.8045 26.4815C27.8185 26.4676 27.8464 26.4746 27.8394 26.4954C27.6233 27.0221 27.456 27.5557 27.4421 28.1309C27.4351 28.4705 27.456 28.8586 27.6512 29.1428C27.9788 29.621 28.411 29.5032 28.7386 29.2052C29.0522 28.0616 29.0662 26.9943 28.5852 25.7399H28.5922C29.3589 27.1052 29.4216 29.0735 28.4458 30.3487Z" fill="#F0A771"/>
<path opacity="0.05" d="M26.3827 4.5809C24.5216 5.98778 23.4412 8.1778 22.6117 10.354C21.7892 12.5301 21.141 14.8033 19.8724 16.7577C18.2692 19.2249 15.7251 21.1169 14.7283 23.8822C13.6409 26.8831 14.6377 30.2166 15.8854 33.1551C17.4258 36.7867 19.4611 40.3697 22.6396 42.7261C25.8181 45.0824 30.3627 45.9556 33.806 44.0013C37.333 41.9914 40.0236 37.4451 41.6128 33.8482C42.7768 31.2007 43.3624 28.2206 42.7141 25.4069C41.9962 22.309 39.8842 19.7516 37.9813 17.2012C36.7824 15.5934 35.6253 13.9023 34.9213 12.0103C34.2382 10.1668 34.3916 8.3164 34.0221 6.41746C33.3042 2.74433 29.0871 2.53641 26.3827 4.5809Z" fill="white"/>
<path opacity="0.03" d="M57.0659 47.8963C56.5711 46.0459 55.5325 43.5925 53.8875 42.8925C51.3363 41.8045 40.4139 49.7745 31.5476 50.62C31.3803 50.6338 31.234 50.6477 31.0736 50.6616C30.5718 50.717 29.9863 50.7517 29.3241 50.7517H29.0592C28.3901 50.7517 27.8115 50.717 27.3097 50.6616C27.1563 50.6477 27.003 50.6338 26.8427 50.62C17.9764 49.7745 7.04695 41.8114 4.50279 42.8925C2.59292 43.7034 1.49858 46.8775 1.12916 48.728C1.08036 48.7072 1.03157 48.6864 0.98975 48.6725C0.878225 46.9607 0.843373 45.235 0.933987 43.4885C1.19886 38.3184 2.36987 33.3562 4.10548 28.498C5.71562 23.9724 7.56973 19.5716 8.10644 14.7549C8.48981 11.2758 8.30161 7.78983 7.61155 4.38699C10.3579 3.45138 13.1181 2.57814 15.9899 1.96133C18.9732 1.32373 21.9425 0.942556 24.9328 0.679199C22.068 2.25934 17.9346 6.15425 16.5196 11.5046C14.7004 18.3865 9.96055 19.7171 8.26676 21.7616C6.55903 23.82 7.65337 34.5621 16.0317 41.3193C23.3226 47.2033 25.9226 47.5082 29.1986 47.6468C32.4677 47.5082 35.0676 47.1963 42.3655 41.3193C50.7439 34.5621 51.8382 23.813 50.1374 21.7616C48.4367 19.7102 43.7038 18.3796 41.8776 11.5046C40.4627 6.19583 36.392 2.32864 33.5411 0.727712C36.3711 0.991069 39.1871 1.35838 42.0101 1.96826C44.8818 2.58507 47.6421 3.45831 50.3884 4.39392C49.6983 7.79676 49.5101 11.2758 49.8935 14.7619C50.4302 19.5785 52.2843 23.9724 53.8944 28.5049C55.6301 33.3701 56.7941 38.3323 57.0659 43.4955C57.1496 44.9717 57.1426 46.4409 57.0659 47.8963Z" fill="black"/>
<path opacity="0.05" d="M27.93 26.3982C27.7837 26.5714 27.707 26.7932 27.6373 27.0081C27.4909 27.4378 27.3654 27.8813 27.3445 28.3318C27.3376 28.6229 27.3794 28.9278 27.5327 29.1704C27.6861 29.4199 27.9719 29.6001 28.2646 29.5654C28.6689 29.5238 28.9338 29.1149 29.0592 28.7268C29.2683 28.0615 29.2126 27.4031 29.0244 26.7447C28.871 26.2249 28.3692 25.8576 27.93 26.3982Z" fill="black"/>
<path opacity="0.3" d="M28.1043 26.7171C27.9998 26.8002 27.9371 26.9181 27.8813 27.0428C27.6652 27.5418 27.6443 28.1309 27.8325 28.6437C27.8952 28.8239 28.0207 29.0249 28.2159 29.0318C28.4319 29.0457 28.5783 28.8239 28.6689 28.6299C28.8083 28.3111 28.9129 27.9646 28.9129 27.618C28.9059 27.2577 28.6411 26.2943 28.1043 26.7171Z" fill="#C47B4E"/>
<path d="M28.5852 25.7467C29.0662 27.0011 29.0522 28.0684 28.7386 29.212C28.411 29.51 27.9788 29.6278 27.6512 29.1496C27.4491 28.8585 27.4351 28.4704 27.4421 28.1377C27.456 27.5625 27.6233 27.0289 27.8394 26.5022C27.8533 26.4814 27.8185 26.4744 27.8045 26.4883C27.3584 27.2229 26.8984 28.6714 27.5397 29.4268C27.8045 29.7387 28.2925 29.808 28.6131 29.6347C28.5364 29.8565 28.4528 30.0852 28.3552 30.3208C28.3343 30.3763 28.411 30.3971 28.4458 30.3555C29.4217 29.0733 29.3589 27.1051 28.5852 25.7467C28.5852 25.7467 28.5852 25.7398 28.5852 25.7467Z" fill="#C47B4E"/>
<path d="M55.4273 30.8059C53.9217 26.0793 52.0676 21.5052 51.1824 16.6054C50.4714 12.6273 50.3878 8.55917 50.8966 4.5603C50.9245 4.33853 50.9524 4.10982 50.9872 3.88805C50.8409 3.83261 50.6875 3.77716 50.5342 3.72172C47.7042 2.67522 44.7418 1.93366 41.8492 1.33072C37.6949 0.46441 33.2896 -0.0969557 28.9959 0.0139313C24.7022 -0.0969557 20.2969 0.46441 16.1426 1.33072C13.25 1.93366 10.2876 2.67522 7.45763 3.72172C7.30428 3.77023 7.1579 3.82568 7.00456 3.88805V3.89498C7.03941 4.11675 7.06729 4.34546 7.09517 4.56723C7.604 8.5661 7.52036 12.6273 6.80939 16.6123C5.93113 21.5191 4.07005 26.0932 2.56446 30.8128C0.835826 36.2463 -0.202751 42.3382 0.0272697 48.2775C0.0412104 48.4785 0.0481807 48.6795 0.055151 48.8805C0.375785 49.033 0.69642 49.1785 1.01705 49.3171C6.55846 51.7774 12.6366 53.1912 18.5753 54.0298C19.8369 54.21 21.0985 54.3694 22.3671 54.5011C24.5698 54.7298 26.7793 54.8961 28.9959 55.007C31.2125 54.903 33.4221 54.7367 35.6247 54.5011C36.8933 54.3694 38.1549 54.21 39.4165 54.0298C45.3483 53.1843 51.4264 51.7774 56.9747 49.3171C57.3024 49.1785 57.616 49.033 57.9367 48.8805C57.9506 48.6795 57.9576 48.4855 57.9645 48.2775C58.1946 42.3312 57.156 36.2394 55.4273 30.8059ZM57.0166 48.6726C51.2521 51.0566 45.2716 52.7061 38.9844 53.5516C35.6595 54.0021 32.3347 54.2308 29.0029 54.3625C28.9959 54.3694 28.9889 54.3694 28.9889 54.3625C25.6571 54.2377 22.3323 54.0021 19.0074 53.5516C12.7202 52.6992 6.73968 51.0497 0.975233 48.6726C0.863708 46.9608 0.828856 45.2351 0.91947 43.4886C1.18434 38.3185 2.35535 33.3563 4.09096 28.4981C5.70111 23.9725 7.55521 19.5716 8.09192 14.755C8.47529 11.2759 8.28709 7.78989 7.59703 4.38704C10.3433 3.45143 13.1036 2.5782 15.9754 1.96139C20.3039 1.03271 24.6116 0.651532 28.9959 0.374314C33.3802 0.651532 37.6809 1.03271 42.0164 1.96139C44.8882 2.5782 47.6485 3.45143 50.3948 4.38704C49.7047 7.78989 49.5165 11.269 49.8999 14.755C50.4366 19.5716 52.2907 23.9655 53.9008 28.4981C55.6364 33.3632 56.8005 38.3254 57.0723 43.4886C57.1629 45.2351 57.1351 46.9608 57.0166 48.6726Z" fill="#C47B4E"/>
<path opacity="0.05" d="M13.0623 2.68896C12.0029 3.84635 11.3337 5.41956 10.9922 6.97198C10.4694 9.36298 10.5321 11.851 9.96753 14.2351C8.93592 18.5735 5.88292 22.3298 5.42985 26.7653C5.19286 29.087 5.69472 31.4434 5.38803 33.7581C5.03254 36.4472 3.61757 38.8659 2.39776 41.2915C1.80529 42.4836 1.24069 43.738 0.878235 45.0201C0.885205 44.5142 0.899146 44.0013 0.927027 43.4954C1.1919 38.3253 2.36291 33.3631 4.09852 28.5049C5.70866 23.9793 7.56277 19.5785 8.09948 14.7618C8.48285 11.2827 8.29465 7.7967 7.60459 4.39385C9.40293 3.77704 11.2152 3.18796 13.0623 2.68896Z" fill="black"/>
<path opacity="0.05" d="M57.1078 46.6764C56.8708 44.8121 56.0971 42.9894 55.2398 41.2845C54.0199 38.852 52.605 36.4402 52.2495 33.7512C51.9428 31.4433 52.4447 29.08 52.2146 26.7583C51.7616 22.3228 48.7086 18.5665 47.677 14.2281C47.1054 11.8509 47.1681 9.35599 46.6454 6.96499C46.2899 5.35019 45.5789 3.71461 44.4497 2.55029C46.4572 3.08394 48.4298 3.72154 50.3884 4.38686C49.6984 7.78971 49.5102 11.2688 49.8935 14.7548C50.4302 19.5715 52.2843 23.9654 53.8945 28.4979C55.6301 33.363 56.7941 38.3252 57.066 43.4884C57.1287 44.5557 57.1426 45.623 57.1078 46.6764Z" fill="black"/>
</g>
<defs>
<clipPath id="clip0_1_140">
<rect width="58" height="55" fill="white"/>
</clipPath>
</defs>
</svg>
