<svg width="58" height="51" viewBox="0 0 58 51" fill="none" xmlns="http://www.w3.org/2000/svg">
<g clip-path="url(#clip0_1_97)">
<path d="M51.0964 30.7001C51.0964 30.8121 51.0964 30.9242 51.0898 31.0362C51.0569 32.6642 50.7344 34.2592 49.8262 35.6894C49.405 36.355 48.8917 36.9416 48.3191 37.4557C48.2335 37.5348 48.1414 37.6139 48.0493 37.6864C46.5488 38.9321 44.6534 39.69 42.7185 39.9405C40.1387 40.27 37.4865 39.7625 35.262 38.4048C34.0708 37.6798 33.0047 36.7044 32.1162 35.5773C32.0965 35.5576 32.0833 35.5378 32.0636 35.5114C32.0307 35.4653 31.9912 35.4257 31.9583 35.3796C31.8727 35.3598 31.7872 35.3466 31.7082 35.3335C31.649 35.3203 31.5963 35.3137 31.5371 35.3071C30.925 35.2082 30.313 35.1357 29.6878 35.1028C29.464 35.0896 29.2337 35.083 29.0033 35.0764C28.773 35.083 28.5426 35.0896 28.3189 35.1028C28.0885 35.116 27.8648 35.1292 27.6344 35.1555C27.2396 35.1951 26.8513 35.2412 26.463 35.3071C26.4037 35.3137 26.3511 35.3269 26.2919 35.3335C26.2063 35.3466 26.1208 35.3664 26.0418 35.3796C26.0089 35.4257 25.976 35.4719 25.9365 35.5114C25.9167 35.5312 25.9036 35.551 25.8838 35.5773C24.9954 36.6978 23.9292 37.6798 22.738 38.4048C20.5136 39.7625 17.8548 40.27 15.2815 39.9405C13.3467 39.69 11.4513 38.9321 9.95078 37.6864C9.85864 37.6139 9.77308 37.5348 9.68095 37.4557C9.10838 36.9416 8.59505 36.3485 8.17386 35.6894C7.5289 34.6744 7.1801 33.5737 7.02215 32.4401V32.4335C6.95634 31.9721 6.92343 31.5042 6.91027 31.0296C6.91027 30.9176 6.90369 30.8056 6.90369 30.6935C6.90369 30.219 6.93001 29.751 6.9695 29.2765C6.9695 29.2369 6.97608 29.1974 6.98266 29.1578C7.04189 28.479 7.12745 27.8067 7.21958 27.1476C7.31172 26.5215 7.40386 25.8888 7.48941 25.2495C7.75266 24.5442 8.06198 23.8456 8.37787 23.1668C9.20052 21.407 10.0627 19.6802 10.7339 17.8611C12.1357 14.078 13.0044 10.0773 13.5507 6.08327C13.7679 4.50806 13.9719 2.92625 14.143 1.34445C14.143 1.33786 14.143 1.32468 14.143 1.31809C14.6497 1.26536 15.1499 1.19945 15.6501 1.12036C14.6695 7.48712 11.629 13.5243 12.0831 20.0756C12.2937 23.0679 13.3335 25.9086 15.1828 28.2747C16.9532 30.5353 19.3224 32.2951 21.9746 33.3694C23.1329 33.8373 24.3307 34.1801 25.5614 34.391C25.9102 34.4503 26.2655 34.503 26.6209 34.536C26.7065 34.5492 26.7986 34.5557 26.8842 34.5623C27.0026 34.5755 27.1211 34.5821 27.2396 34.5887C27.2461 34.5887 27.2461 34.5887 27.2527 34.5887C27.437 34.6085 27.6213 34.6151 27.8121 34.6282C28.207 34.648 28.6019 34.6612 28.9967 34.6546H29.1349C29.668 34.6546 30.2077 34.6348 30.7342 34.5887C30.7407 34.5887 30.7408 34.5887 30.7473 34.5887C30.8658 34.5821 30.9843 34.5689 31.1027 34.5623C31.1883 34.5557 31.2804 34.5492 31.366 34.536C32.9586 34.3712 34.5249 33.9692 36.0123 33.3694C38.6711 32.2885 41.0337 30.5353 42.8041 28.2747C44.6534 25.9086 45.6932 23.0679 45.9038 20.0756C46.3579 13.5178 43.3174 7.48053 42.3368 1.12036C42.837 1.19945 43.3437 1.26536 43.8439 1.31809C43.8439 1.32468 43.8439 1.33786 43.8439 1.34445C44.015 2.92625 44.219 4.50806 44.4362 6.08327C44.989 10.0773 45.8577 14.078 47.253 17.8611C47.9242 19.6802 48.7864 21.407 49.609 23.1668C49.9249 23.8456 50.2342 24.5377 50.4975 25.2495C50.583 25.8888 50.6817 26.5215 50.7673 27.1476C50.945 28.3076 51.0898 29.5072 51.0964 30.7001Z" fill="#B8569B"/>
<path d="M12.32 11.4153C13.0703 8.08033 13.531 4.70581 14.0246 1.3313C13.2677 1.41039 12.5109 1.4763 11.754 1.54221C9.00969 1.78607 6.05473 2.17493 3.78422 3.88196C1.40183 5.68126 0.559442 8.66692 0.408075 11.5273C0.0921777 17.4789 2.1126 23.4041 1.54662 29.3358C2.38901 29.9224 3.34987 30.3442 4.32388 30.5749C5.04781 30.7397 5.79149 30.7924 6.522 30.7331C6.52858 29.6456 6.6602 28.5449 6.81815 27.4377C6.91687 26.772 7.02217 26.1129 7.12089 25.4472C7.49601 22.9295 7.75926 20.4118 6.83131 18.0325C6.81815 17.9996 6.8708 17.9798 6.88396 18.0127C7.81191 19.9702 7.82507 22.0727 7.60131 24.1752C7.78559 23.7402 7.98302 23.3052 8.18046 22.8768C9.04259 21.0379 9.93105 19.232 10.6221 17.3141C11.3263 15.3896 11.8725 13.4123 12.32 11.4153Z" fill="#F0A771"/>
<path d="M57.5854 11.5273C57.4341 8.66692 56.5917 5.68126 54.2093 3.88196C51.9453 2.17493 48.9904 1.78607 46.246 1.54221C45.4892 1.4763 44.7324 1.41039 43.9755 1.3313C44.4691 4.70581 44.9298 8.08692 45.6801 11.4153C46.1276 13.4123 46.6738 15.383 47.3583 17.3141C48.0427 19.2321 48.9312 21.0379 49.7999 22.8768C50.0039 23.3052 50.1947 23.7336 50.379 24.1752C50.1553 22.0793 50.1684 19.9702 51.0964 18.0127C51.1095 17.9864 51.1622 18.0062 51.149 18.0325C50.2277 20.4118 50.4843 22.9295 50.8594 25.4472C50.9582 26.1129 51.07 26.7786 51.1622 27.4377C51.3201 28.5449 51.4518 29.6456 51.4583 30.7331C52.1888 30.7858 52.9325 30.7397 53.6565 30.5749C54.637 30.3508 55.5913 29.9224 56.4337 29.3358C55.8809 23.4041 57.9013 17.4855 57.5854 11.5273Z" fill="#F0A771"/>
<path d="M47.8914 38.3062C47.1016 41.338 46.3645 44.383 45.6932 47.4477C45.2326 47.652 44.7653 47.8432 44.298 48.0343C39.395 49.972 34.2091 50.4993 28.9968 50.7036C23.7845 50.4993 18.6051 49.972 13.7021 48.0343C13.5244 47.9618 13.3401 47.8893 13.1624 47.8168C12.8729 47.6982 12.5899 47.5795 12.3069 47.4543C11.6356 44.3962 10.8985 41.3446 10.1088 38.3128C13.5047 40.8437 18.5524 41.048 22.2905 39.0905C23.587 38.4117 24.7519 37.4758 25.7062 36.3553C25.9299 36.0917 26.1405 35.8149 26.3248 35.5315C26.7263 35.4853 27.1277 35.4458 27.5292 35.4128C27.8187 35.3931 28.1083 35.3733 28.3979 35.3601C28.5953 35.3535 28.7862 35.3469 28.9836 35.3469H29.0099C29.2074 35.3469 29.3982 35.3535 29.5957 35.3601C30.2867 35.3865 30.9843 35.4392 31.6753 35.5249C31.8662 35.8083 32.0702 36.0851 32.2939 36.3487C33.2416 37.4692 34.4065 38.4051 35.7096 39.0839C39.4477 41.0414 44.4955 40.8371 47.8914 38.3062Z" fill="#F0A771"/>
<path d="M12.478 20.4976C12.7676 23.5426 13.9851 26.3569 15.9528 28.6834C17.8548 30.9243 20.4149 32.5654 23.1987 33.4816C24.357 33.8638 25.568 34.1341 26.7855 34.2922C26.8645 34.3054 26.9369 34.312 27.0158 34.3186C27.3383 34.3582 27.6542 34.3911 27.9767 34.4109C28.2268 34.4306 28.4703 34.4438 28.7204 34.4438C28.8586 34.4438 29.0033 34.4504 29.1415 34.4438C29.1942 34.4438 29.2403 34.4438 29.2929 34.4438C29.543 34.4372 29.7865 34.4306 30.0366 34.4109C30.3525 34.3845 30.675 34.3582 30.9974 34.3186C31.0764 34.312 31.1488 34.2988 31.2278 34.2922C32.4453 34.1275 33.6497 33.8572 34.8145 33.4816C37.5984 32.572 40.1585 30.9243 42.0604 28.6834C44.0348 26.3569 45.2457 23.5426 45.5353 20.4976C45.8643 17.0308 45.1667 13.5442 44.3046 10.2027C43.528 7.19066 42.6659 4.20501 42.2644 1.12708C42.2644 1.12049 42.2644 1.10731 42.2579 1.10072C41.863 1.03481 41.4681 0.962311 41.0798 0.87663C40.6915 0.843675 40.3032 0.810721 39.915 0.784358C36.2887 0.514133 32.6559 0.375725 29.0165 0.322998C25.3771 0.382316 21.7509 0.514133 18.1181 0.784358C17.7298 0.810721 17.3415 0.843675 16.9532 0.87663C16.5649 0.962311 16.17 1.03481 15.7752 1.10072C15.7752 1.10731 15.7752 1.12049 15.7686 1.12708C15.3605 4.20501 14.4984 7.19066 13.7284 10.2027C12.8465 13.5442 12.1489 17.0308 12.478 20.4976Z" fill="#F0A771"/>
<path opacity="0.07" d="M55.3676 9.88638C55.0714 8.19254 54.3146 6.51846 52.9852 5.43756C51.5242 4.25121 49.5827 3.91508 47.7268 3.6119C44.3704 3.06486 40.9877 2.52441 37.5918 2.12236C37.5918 2.10259 37.5918 2.07623 37.5918 2.05646C34.7816 1.63464 31.9583 1.48305 29.1284 1.5226C26.2985 1.48305 23.4751 1.62805 20.665 2.05646C20.665 2.07623 20.665 2.10259 20.665 2.12236C17.2757 2.51781 13.8929 3.06486 10.5299 3.6119C8.68063 3.91508 6.7326 4.25121 5.27816 5.43756C3.95534 6.51846 3.20508 8.19254 2.90893 9.88638C2.61277 11.5802 2.71807 13.3202 2.82337 15.0338C3.07346 18.9686 3.31696 22.9033 3.56705 26.8381C3.59337 27.2599 3.66576 27.7608 4.03431 27.9585C4.38969 28.1496 4.85038 27.9519 5.0873 27.629C5.32422 27.2994 5.38345 26.8842 5.4361 26.4887C5.87046 22.989 5.71251 19.5024 5.62696 15.9895C5.6138 15.4491 5.64012 14.8229 6.07448 14.5C6.72602 14.0254 7.61448 14.6516 8.06858 15.3172C10.0561 18.1843 9.78627 22.0004 9.41114 25.4737C9.12157 28.1958 8.49636 31.4516 9.91131 33.9364C11.2012 36.1971 13.6034 37.858 16.2227 38.0425C19.8292 38.293 23.4356 35.7159 24.3702 32.2162C24.9296 30.1203 24.8769 28.0705 24.436 25.9615C24.1398 24.5642 23.9424 23.0088 24.6861 21.7829C25.4034 20.5965 26.8381 20.0363 28.207 19.8122C29.2337 19.6408 30.3064 19.6211 31.3002 19.9374C32.2939 20.2538 33.1956 20.9524 33.5904 21.9213C33.9458 22.7913 33.8537 23.7799 33.6167 24.6894C33.3798 25.599 32.9981 26.4624 32.7612 27.3719C32.2742 29.2701 32.465 31.333 33.2943 33.106C33.9919 34.5955 35.3147 36.2827 36.8744 36.9286C38.421 37.568 40.3427 38.148 42.0275 38.0293C44.6468 37.8448 47.0489 36.1839 48.3389 33.9232C49.7472 31.4451 49.1286 28.1892 48.839 25.4606C48.4705 21.9872 48.1941 18.1711 50.1816 15.3041C50.6423 14.645 51.5307 14.0123 52.1757 14.4868C52.6101 14.8032 52.6364 15.4359 52.6232 15.9763C52.5377 19.4893 52.3797 22.9758 52.8141 26.4756C52.8667 26.8776 52.9259 27.2928 53.1629 27.6158C53.3998 27.9453 53.8605 28.143 54.2159 27.9453C54.591 27.741 54.6568 27.2467 54.6831 26.8249C54.9332 22.8901 55.1767 18.9554 55.4268 15.0207C55.5584 13.3202 55.6703 11.5802 55.3676 9.88638Z" fill="white"/>
<path opacity="0.08" d="M9.07543 32.5193C10.0692 35.1952 12.4516 37.3834 15.2683 37.8579C17.8482 38.2863 20.5793 37.2384 22.3629 35.3139C24.1464 33.3959 24.9887 30.6871 24.8176 28.0705C24.6465 25.4539 23.5146 22.9494 21.8166 20.9524C20.1976 19.041 17.0255 16.7804 14.5115 18.4017C11.879 20.1022 9.56902 23.4833 8.82535 26.4887C8.33176 28.4726 8.36467 30.6014 9.07543 32.5193Z" fill="white"/>
<path opacity="0.08" d="M19.4869 22.9165C19.9739 23.0615 20.4412 23.3119 20.8624 23.6876C22.5471 25.2101 23.2908 28.0837 23.0078 30.3773C22.7841 32.1964 21.9614 33.9298 20.6978 35.1293C19.4277 36.3289 17.71 36.9748 16.0384 36.81C12.1555 36.4277 9.20708 32.0712 10.9116 28.0508C11.6948 26.2053 13.1821 24.8015 14.8208 23.826C16.1766 23.0219 17.9535 22.4617 19.4869 22.9165Z" fill="white"/>
<path opacity="0.08" d="M49.2141 32.5193C48.2204 35.1952 45.838 37.3834 43.0212 37.8579C40.4414 38.2863 37.7102 37.2384 35.9267 35.3139C34.1432 33.3959 33.3074 30.6871 33.4719 28.0705C33.643 25.4539 34.775 22.9494 36.4729 20.9524C38.0919 19.041 41.264 16.7804 43.7781 18.4017C46.4105 20.1022 48.7205 23.4833 49.4642 26.4887C49.9578 28.4726 49.9249 30.6014 49.2141 32.5193Z" fill="white"/>
<path opacity="0.08" d="M38.8027 22.9165C38.3157 23.0615 37.8484 23.3119 37.4272 23.6876C35.7424 25.2101 34.9988 28.0837 35.2818 30.3773C35.5055 32.1964 36.3282 33.9298 37.5917 35.1293C38.8619 36.3289 40.5796 36.9748 42.2512 36.81C46.1341 36.4277 49.0825 32.0712 47.378 28.0508C46.5948 26.2053 45.1075 24.8015 43.4688 23.826C42.1064 23.0219 40.3361 22.4617 38.8027 22.9165Z" fill="white"/>
<path opacity="0.05" d="M26.3247 35.5246C26.7262 35.4785 27.1277 35.439 27.5291 35.406C27.1342 36.3683 26.5814 37.2646 25.8838 38.0292C24.1661 39.9141 21.8166 41.1466 19.3553 41.7925C17.7889 42.2012 16.0778 42.4318 14.8537 43.493C13.7678 44.4355 13.2545 45.9052 13.1755 47.342C13.1624 47.5002 13.1624 47.6518 13.1624 47.81C12.8728 47.6914 12.5898 47.5727 12.3068 47.4475C11.6355 44.3893 10.8984 41.3378 10.1087 38.306C13.5046 40.8369 18.5524 41.0412 22.2905 39.0837C23.587 38.4048 24.7518 37.4689 25.7061 36.3485C25.9299 36.0849 26.1339 35.808 26.3247 35.5246Z" fill="black"/>
<path opacity="0.05" d="M27.8845 34.4108C27.8648 34.4833 27.8385 34.5558 27.8187 34.6349C27.7595 34.8128 27.7002 34.9842 27.6344 35.1556C27.2396 35.1951 26.8513 35.2412 26.463 35.3072C26.4038 35.3137 26.3511 35.3269 26.2919 35.3335C26.2063 35.3467 26.1208 35.3665 26.0418 35.3797C26.0089 35.4258 25.976 35.4719 25.9365 35.5115C25.9167 35.5312 25.9036 35.551 25.8838 35.5774C24.9954 36.6978 23.9292 37.6799 22.738 38.4049C20.5136 39.7626 17.8548 40.2701 15.2815 39.9405C13.3467 39.6901 11.4513 38.9321 9.95078 37.6864C9.85865 37.6139 9.77309 37.5349 9.68096 37.4558C9.10839 36.9417 8.59506 36.3485 8.17386 35.6894C7.52891 34.6744 7.1801 33.5738 7.02216 32.4401C7.77899 35.8015 10.7208 38.4971 14.3141 39.321C17.8482 40.1251 21.7706 38.9123 24.232 36.2431C24.7519 35.6828 25.1994 35.0567 25.5745 34.391C25.6272 34.3053 25.6732 34.2131 25.7193 34.1208C26.3643 32.8949 26.7723 31.5306 26.9039 30.1531C27.0224 28.9536 26.9105 27.787 26.6473 26.6138C26.3906 25.4736 25.7983 24.5904 25.2784 23.5754C25.9628 24.3598 26.871 25.5395 27.3383 26.5479C27.9108 27.7804 28.2465 29.1183 28.332 30.4761C28.411 31.7876 28.2662 33.1388 27.8845 34.4108Z" fill="black"/>
<path opacity="0.05" d="M31.6752 35.5246C31.2738 35.4785 30.8723 35.439 30.4709 35.406C30.8658 36.3683 31.4186 37.2646 32.1162 38.0292C33.8339 39.9141 36.1834 41.1466 38.6447 41.7925C40.211 42.2012 41.9222 42.4319 43.1463 43.493C44.2322 44.4355 44.7455 45.9052 44.8245 47.342C44.831 47.4936 44.8376 47.6452 44.8376 47.7968C45.1272 47.6782 45.4102 47.5595 45.6932 47.4343C46.3645 44.3762 47.1015 41.3246 47.8913 38.2928C44.4954 40.8237 39.4476 41.028 35.7095 39.0705C34.413 38.3917 33.2481 37.4558 32.2939 36.3353C32.0701 36.0849 31.8661 35.808 31.6752 35.5246Z" fill="black"/>
<path opacity="0.05" d="M30.1155 34.4108C30.1353 34.4833 30.1616 34.5558 30.1814 34.6349C30.2406 34.8128 30.2998 34.9842 30.3656 35.1556C30.7605 35.1951 31.1488 35.2412 31.5305 35.3072C31.5897 35.3137 31.6424 35.3269 31.7016 35.3335C31.7872 35.3467 31.8727 35.3665 31.9517 35.3797C31.9846 35.4258 32.0175 35.4719 32.057 35.5115C32.0767 35.5312 32.0899 35.551 32.1096 35.5774C32.9981 36.6978 34.0643 37.6799 35.2554 38.4049C37.4799 39.7626 40.1387 40.2701 42.7119 39.9405C44.6468 39.6901 46.5422 38.9321 48.0427 37.6864C48.1348 37.6139 48.2204 37.5349 48.3125 37.4558C48.8851 36.9417 49.3984 36.3485 49.8196 35.6894C50.4646 34.6744 50.8134 33.5738 50.9713 32.4401C50.2145 35.8015 47.2727 38.4971 43.6794 39.321C40.1453 40.1251 36.2229 38.9123 33.7615 36.2431C33.2416 35.6828 32.7941 35.0567 32.419 34.391C32.3663 34.3053 32.3202 34.2131 32.2742 34.1208C31.6292 32.8949 31.2212 31.5306 31.0896 30.1531C30.9711 28.9536 31.083 27.787 31.3462 26.6138C31.6029 25.4736 32.1952 24.5904 32.7151 23.5754C32.0307 24.3598 31.1225 25.5395 30.6552 26.5479C30.0826 27.7804 29.747 29.1183 29.6614 30.4761C29.589 31.7876 29.7338 33.1388 30.1155 34.4108Z" fill="black"/>
<path d="M53.8811 3.20974C52.8939 2.57702 51.8014 2.14862 50.676 1.84544C50.3338 1.75317 49.9916 1.68067 49.6494 1.60817C48.5372 1.39067 47.4052 1.27203 46.293 1.18635C46.293 1.18635 46.293 1.18635 46.2864 1.18635C46.0297 1.1534 45.7665 1.12704 45.5098 1.09408C44.9833 1.03476 44.4502 0.975446 43.9237 0.922719C43.8843 0.916128 43.8514 0.916128 43.8119 0.909537C43.3051 0.856811 42.7984 0.810675 42.2916 0.764539C42.2653 0.757948 42.2324 0.757948 42.1995 0.757948C41.8309 0.724994 41.4558 0.692039 41.0807 0.659085C41.0675 0.659085 41.0544 0.659085 41.0346 0.652494C40.6463 0.61954 40.258 0.586586 39.8697 0.560222C38.2705 0.434996 36.6713 0.329543 35.0655 0.243861C34.3481 0.204316 33.6374 0.164771 32.92 0.131817C31.6103 0.0659085 30.3073 0.0197726 28.9976 0C27.6945 0.0197726 26.3915 0.0659085 25.0818 0.125226C24.3645 0.15818 23.6537 0.197726 22.9363 0.237271C21.3371 0.329543 19.7313 0.428405 18.1321 0.553631C17.7438 0.579995 17.3555 0.612949 16.9672 0.645903C16.9475 0.659085 16.9343 0.659085 16.9146 0.659085C16.5394 0.692039 16.1709 0.724994 15.7958 0.757948C15.7694 0.757948 15.7365 0.764539 15.7036 0.764539C15.1969 0.810675 14.6901 0.856811 14.1834 0.909537C14.1439 0.916128 14.111 0.916128 14.0715 0.922719C13.545 0.975446 13.0119 1.03476 12.4854 1.09408C12.2353 1.12704 11.9787 1.15999 11.7154 1.18635C11.7154 1.18635 11.7154 1.18635 11.7088 1.18635C10.5966 1.27203 9.46465 1.39067 8.35243 1.60817C8.01021 1.67408 7.66141 1.75317 7.32577 1.84544C6.1938 2.14203 5.10791 2.57043 4.12073 3.20974C-1.22319 6.63699 -0.078067 14.2296 0.599795 19.5616C1.00125 22.745 1.4027 25.9548 1.31714 29.1645C1.31714 29.2172 1.31714 29.2766 1.31056 29.3293C1.31056 29.3688 1.31056 29.4084 1.30398 29.4479C1.37638 29.5072 1.45535 29.5666 1.52774 29.6259C2.33723 30.2454 3.27176 30.6936 4.31158 30.9243C5.0421 31.089 5.79893 31.1352 6.53603 31.0759C6.56235 32.6643 6.87167 34.2197 7.75355 35.7026C8.30637 36.6319 9.01055 37.4228 9.81346 38.0753C9.8332 38.1676 9.85294 38.2599 9.87269 38.3587C10.5111 41.3444 11.1955 44.3235 11.9458 47.2828C11.9655 47.375 11.9918 47.4607 12.0182 47.553C12.084 47.5859 12.1498 47.6189 12.2156 47.6453C12.2682 47.6716 12.3209 47.698 12.3735 47.7178C14.1176 48.5416 15.9471 49.1743 17.8491 49.6489C20.271 50.2486 22.7389 50.598 25.22 50.8023H25.2266C26.4836 50.9011 27.7472 50.967 29.0108 51C30.2744 50.9605 31.538 50.9011 32.795 50.8023H32.8015C35.2826 50.6045 37.7506 50.2552 40.1725 49.6489C42.0744 49.1743 43.904 48.5416 45.648 47.7178C45.7007 47.6914 45.7533 47.665 45.806 47.6453C45.8718 47.6123 45.9376 47.5859 46.0034 47.553C46.0297 47.4607 46.0495 47.375 46.0758 47.2828C46.8261 44.3235 47.5105 41.3444 48.1489 38.3587C48.1686 38.2665 48.1884 38.1742 48.2081 38.0753C49.011 37.4228 49.7086 36.6319 50.268 35.7026C51.1499 34.2197 51.4592 32.6643 51.4855 31.0759C52.2292 31.1352 52.9795 31.089 53.71 30.9243C54.7498 30.6936 55.6843 30.2454 56.4938 29.6259C56.5333 29.5995 56.5662 29.5666 56.6057 29.5402C56.6452 29.5138 56.6781 29.4809 56.7176 29.4479C56.711 29.3556 56.711 29.2568 56.711 29.1645C56.6189 25.9548 57.0269 22.745 57.4283 19.5616C58.0799 14.2296 59.2316 6.63699 53.8811 3.20974ZM15.7563 1.10067C16.1511 1.03476 16.546 0.962264 16.9343 0.876583C17.3226 0.843629 17.7109 0.810675 18.0992 0.784311C21.7254 0.514086 25.3582 0.375678 28.9976 0.322952C32.637 0.382269 36.2632 0.514086 39.8961 0.784311C40.2844 0.810675 40.6726 0.843629 41.0609 0.876583C41.4492 0.962264 41.8441 1.03476 42.239 1.10067C42.239 1.10726 42.239 1.12044 42.2455 1.12704C42.6536 4.20496 43.5157 7.19062 44.2857 10.2026C45.1479 13.5442 45.8455 17.0308 45.5164 20.4975C45.2268 23.5425 44.0093 26.3568 42.0415 28.6834C40.1396 30.9243 37.5795 32.5654 34.7956 33.4815C33.6374 33.8638 32.4264 34.134 31.2089 34.2922C31.1299 34.3054 31.0575 34.312 30.9786 34.3186C30.6561 34.3581 30.3402 34.3911 30.0177 34.4108C29.7676 34.4306 29.5241 34.4438 29.274 34.4438C29.2214 34.4438 29.1753 34.4438 29.1227 34.4438C28.9845 34.4438 28.8397 34.4438 28.7015 34.4438C28.4514 34.4372 28.2079 34.4306 27.9578 34.4108C27.6419 34.3845 27.3194 34.3581 26.9969 34.3186C26.918 34.312 26.8456 34.2988 26.7666 34.2922C25.5491 34.1274 24.3447 33.8572 23.1798 33.4815C20.396 32.572 17.8359 30.9243 15.934 28.6834C13.9596 26.3568 12.7487 23.5425 12.4591 20.4975C12.13 17.0308 12.8276 13.5442 13.6898 10.2026C14.4664 7.19062 15.3285 4.20496 15.7299 1.12704C15.7497 1.12044 15.7563 1.10726 15.7563 1.10067ZM6.83218 27.4443C6.67423 28.5516 6.54261 29.6522 6.53603 30.7397C5.80551 30.7925 5.06184 30.7463 4.33791 30.5815C3.35731 30.3575 2.40304 29.9291 1.56065 29.3425C2.12663 23.4107 0.106206 17.4921 0.422103 11.534C0.57347 8.67356 1.41586 5.6879 3.79825 3.8886C6.06218 2.18157 9.01713 1.79271 11.7615 1.54885C12.5183 1.48294 13.2752 1.41703 14.032 1.33794C13.5384 4.71246 13.0777 8.09356 12.3275 11.4219C11.8799 13.419 11.3337 15.3896 10.6493 17.3208C9.96482 19.2387 9.07636 21.0446 8.20765 22.8834C8.00363 23.3118 7.81278 23.7402 7.6285 24.1818C7.85226 22.0859 7.8391 19.9769 6.91115 18.0194C6.89799 17.993 6.84534 18.0128 6.8585 18.0392C7.77987 20.4185 7.5232 22.9362 7.14808 25.4539C7.0362 26.1129 6.9309 26.7786 6.83218 27.4443ZM45.6941 47.4409C45.2334 47.6453 44.7661 47.8364 44.2989 48.0275C39.3959 49.9652 34.2099 50.4925 28.9976 50.6968C23.7853 50.4925 18.6059 49.9652 13.7029 48.0275C13.2357 47.843 12.7684 47.6453 12.3077 47.4409C11.6364 44.3828 10.8994 41.3312 10.1096 38.2994C13.5055 40.8303 18.5533 41.0346 22.2914 39.0772C23.5879 38.3983 24.7528 37.4624 25.707 36.3419C25.9308 36.0783 26.1414 35.8015 26.3257 35.5181C27.0167 35.4324 27.7143 35.3797 28.4053 35.3533C28.6027 35.3467 28.7936 35.3401 28.991 35.3401H29.0174C29.2148 35.3401 29.4057 35.3467 29.6031 35.3533C30.2941 35.3797 30.9917 35.4324 31.6827 35.5181C31.8736 35.8015 32.0776 36.0783 32.3014 36.3419C33.2491 37.4624 34.4139 38.3983 35.717 39.0772C39.4551 41.0346 44.5029 40.8303 47.8988 38.2994C47.109 41.3378 46.3654 44.3828 45.6941 47.4409ZM51.0907 31.0363C51.0578 32.6643 50.7353 34.2592 49.8271 35.6895C49.4059 36.3551 48.8925 36.9417 48.32 37.4558C48.2344 37.5349 48.1423 37.614 48.0502 37.6865C46.5496 38.9322 44.6543 39.6901 42.7194 39.9406C40.1396 40.2701 37.4874 39.7626 35.2629 38.4049C34.0717 37.6799 33.0056 36.7044 32.1171 35.5774C32.0974 35.5576 32.0842 35.5379 32.0644 35.5115C32.0315 35.4654 31.9921 35.4258 31.9592 35.3797C31.8736 35.3599 31.788 35.3467 31.7091 35.3335C31.6498 35.3204 31.5972 35.3138 31.538 35.3072C30.9259 35.2083 30.3139 35.1358 29.6886 35.1029C29.4649 35.0897 29.2345 35.0831 29.0042 35.0765C28.7739 35.0831 28.5435 35.0897 28.3198 35.1029C27.6945 35.1358 27.0825 35.2083 26.4704 35.3072C26.4112 35.3138 26.3586 35.327 26.2993 35.3335C26.2138 35.3467 26.1282 35.3665 26.0492 35.3797C26.0163 35.4258 25.9834 35.472 25.9439 35.5115C25.9242 35.5313 25.911 35.551 25.8913 35.5774C25.0028 36.6979 23.9367 37.6799 22.7455 38.4049C20.521 39.7626 17.8622 40.2701 15.289 39.9406C13.3541 39.6901 11.4588 38.9322 9.95824 37.6865C9.86611 37.614 9.78055 37.5349 9.68841 37.4558C9.11585 36.9417 8.60252 36.3485 8.18132 35.6895C7.27312 34.2592 6.95064 32.6643 6.91774 31.0363C6.91774 30.9243 6.91115 30.8122 6.91115 30.7002C6.91115 29.5138 7.05594 28.3143 7.22047 27.1477C7.31261 26.5216 7.40474 25.8889 7.4903 25.2495C7.75355 24.5443 8.06286 23.8457 8.37876 23.1668C9.20141 21.4071 10.0635 19.6803 10.7348 17.8612C12.1366 14.0781 13.0053 10.0774 13.5516 6.08335C13.7688 4.50814 13.9728 2.92634 14.1439 1.34453C14.1439 1.33794 14.1439 1.32476 14.1439 1.31817C14.6506 1.26544 15.1508 1.19953 15.651 1.12044C14.6704 7.48721 11.6299 13.5244 12.084 20.0757C12.2946 23.068 13.3344 25.9086 15.1837 28.2747C16.954 30.5354 19.3233 32.2952 21.9755 33.3695C23.4628 33.9758 25.0226 34.3713 26.6218 34.5361C26.7074 34.5492 26.7995 34.5558 26.8851 34.5624C27.0035 34.5756 27.122 34.5822 27.2404 34.5888C27.247 34.5888 27.247 34.5888 27.2536 34.5888C27.8327 34.6415 28.4119 34.6613 28.991 34.6547C29.0371 34.6547 29.0832 34.6547 29.1292 34.6547C29.6623 34.6547 30.202 34.6349 30.7285 34.5888C30.7351 34.5888 30.7351 34.5888 30.7416 34.5888C30.8601 34.5822 30.9786 34.569 31.097 34.5624C31.1826 34.5558 31.2747 34.5492 31.3603 34.5361C32.9529 34.3713 34.5192 33.9692 36.0066 33.3695C38.6654 32.2886 41.028 30.5354 42.7984 28.2747C44.6477 25.9086 45.6875 23.068 45.8981 20.0757C46.3522 13.5178 43.3117 7.48062 42.3311 1.12044C42.8313 1.19953 43.338 1.26544 43.8382 1.31817C43.8382 1.32476 43.8382 1.33794 43.8382 1.34453C44.0093 2.92634 44.2133 4.50814 44.4305 6.08335C44.9833 10.0774 45.852 14.0781 47.2472 17.8612C47.9185 19.6803 48.7807 21.4071 49.6033 23.1668C49.9192 23.8457 50.2285 24.5377 50.4918 25.2495C50.5773 25.8889 50.676 26.5216 50.7616 27.1477C50.9261 28.3143 51.0709 29.5138 51.0709 30.7002C51.0972 30.8122 51.0907 30.9243 51.0907 31.0363ZM56.4477 29.3359C55.6054 29.9225 54.6445 30.3443 53.6705 30.575C52.9466 30.7397 52.2029 30.7925 51.4724 30.7331C51.4658 29.6456 51.3342 28.545 51.1762 27.4377C51.0775 26.772 50.9722 26.1129 50.8735 25.4473C50.4984 22.9296 50.2351 20.4119 51.1631 18.0326C51.1762 17.9996 51.1236 17.9798 51.1104 18.0128C50.1825 19.9703 50.1693 22.0728 50.3931 24.1752C50.2088 23.7402 50.0113 23.3052 49.8139 22.8768C48.9518 21.038 48.0633 19.2321 47.3723 17.3142C46.6813 15.3896 46.1416 13.4124 45.6941 11.4154C44.9438 8.08038 44.4831 4.70587 43.9896 1.33135C44.7464 1.41044 45.5032 1.47635 46.2601 1.54226C49.0044 1.78612 51.9594 2.17498 54.2233 3.88201C56.6057 5.68131 57.4481 8.66697 57.5995 11.5274C57.9022 17.4855 55.8818 23.4041 56.4477 29.3359Z" fill="#C47B4E"/>
</g>
<defs>
<clipPath id="clip0_1_97">
<rect width="58" height="51" fill="white"/>
</clipPath>
</defs>
</svg>
