<svg width="40" height="57" viewBox="0 0 40 57" fill="none" xmlns="http://www.w3.org/2000/svg">
<path d="M40 21.2574C39.5874 23.5281 39.3681 25.8246 39.2263 28.1211C39.1747 28.9959 39.1296 29.8708 39.1038 30.7456V30.752C38.9813 34.7339 39.078 38.7157 38.9426 42.6975C38.8652 45.0262 38.7105 47.3548 38.3946 49.6577C38.2012 51.0343 37.9819 52.4559 37.6338 53.8325C37.5886 54.0191 37.5371 54.1992 37.4855 54.3793C37.3179 54.4951 37.1567 54.6044 36.989 54.7074C35.6802 55.5372 34.2102 56.1418 32.6886 56.5149C31.5603 56.798 30.3997 56.9524 29.2521 56.9781C28.9168 56.991 28.588 56.9845 28.2527 56.9717C26.2669 56.888 24.3327 56.3991 22.5661 55.5693C21.8827 55.2541 21.225 54.881 20.5932 54.4565C20.4836 54.3857 20.374 54.3085 20.2708 54.2378C20.1934 54.0962 20.1225 53.9547 20.0451 53.8132C19.1425 52.07 18.3366 50.301 17.8014 48.3776C17.0406 45.6759 17.0729 43.0256 17.3759 40.2531C17.6596 37.6736 18.2592 33.7561 15.9059 31.9164C14.8549 31.093 13.4687 30.8228 12.2179 30.4497C10.8446 30.038 9.47776 29.5877 8.12379 29.0988C5.87363 28.3076 3.72018 27.3749 1.58607 26.3714C1.47002 26.3199 1.35397 26.262 1.23791 26.2106C1.21857 26.1655 1.19923 26.1205 1.17988 26.0755C0.676983 24.9498 0.341715 23.7533 0.161186 22.5246C0.0580271 21.8492 0.00644745 21.1545 0 20.4662C0 20.1381 0.00644745 19.81 0.0257898 19.4884C0.0902643 18.3563 0.27724 17.2563 0.567376 16.182C0.670535 15.7961 0.786589 15.4165 0.921986 15.0434C2.34043 10.9587 5.26757 7.40141 8.67827 4.73184C8.7363 4.68681 8.78788 4.64822 8.84591 4.60319C9.05222 4.44237 9.27144 4.28155 9.4842 4.12074C11.3669 2.76344 13.5461 1.5734 15.8221 0.827205C16.9955 0.447676 18.1947 0.183936 19.3939 0.0681481C20.4191 -0.0283422 21.4442 -0.0154768 22.4565 0.132475C22.6886 0.164638 22.9207 0.209667 23.1528 0.254696H23.1593C23.4881 0.454109 23.804 0.67282 24.107 0.904397C25.029 1.59913 25.8672 2.42894 26.6344 3.31665C28.3559 5.31722 29.697 7.59439 31.1734 9.76863C31.9923 10.9715 32.8756 12.1423 33.8878 13.1973C34.8227 14.175 35.9059 14.9534 36.9568 15.8025C37.9433 16.6001 38.8395 17.5007 39.3681 18.6715C39.3681 18.6779 39.3681 18.6779 39.3746 18.6843C39.697 19.4112 39.8839 20.1767 39.9678 20.9615V20.9679C39.9807 21.058 39.9935 21.1609 40 21.2574Z" fill="#F0A771"/>
<g opacity="0.08">
<path opacity="0.08" d="M17.1373 17.0698C18.1947 18.2599 19.4262 19.5335 21.0123 19.63C22.9787 19.7523 24.6551 17.7967 24.6873 15.8348C24.7195 13.8664 23.4558 12.0588 21.844 10.9202C20.2386 9.7816 18.3108 9.18979 16.4281 8.62372C14.9774 8.18629 13.5332 7.74887 12.0825 7.31145C11.2895 7.07344 9.56158 6.73894 9.45842 8.01905C9.38105 8.91319 10.9671 10.1483 11.4958 10.7401C13.372 12.85 15.2547 14.9599 17.1373 17.0698Z" fill="white"/>
<path opacity="0.08" d="M22.0503 37.056C21.1025 37.6671 20.922 38.9601 20.8704 40.0858C20.6706 44.3378 20.9349 48.7056 22.5661 52.636C22.8691 53.3628 23.2237 54.0833 23.7782 54.6365C24.3327 55.1897 25.1193 55.5628 25.8994 55.4599C26.7956 55.3377 27.5113 54.5979 27.853 53.7552C28.1947 52.919 28.2141 51.9862 28.2012 51.0857C28.1561 48.8407 26.9052 33.9168 22.0503 37.056Z" fill="white"/>
<path opacity="0.08" d="M32.9272 20.8262C32.5274 21.611 32.4307 22.5373 32.708 23.3736C33.3463 25.2777 34.0426 27.1303 34.481 29.118C35.3837 33.2156 35.7189 37.4354 35.4675 41.6231C35.4481 41.9447 35.4288 42.2792 35.5577 42.5687C35.6867 42.8646 36.022 43.0962 36.325 42.9933C36.6345 42.8903 36.7634 42.5237 36.8343 42.2085C38.0658 36.6892 36.5313 30.8226 38.0465 25.3549C38.4526 23.8946 39.0974 22.3444 38.5494 20.9292C37.9626 19.4111 35.9768 18.6713 34.4875 19.3274C33.7911 19.6362 33.256 20.183 32.9272 20.8262Z" fill="white"/>
<path opacity="0.08" d="M6.59573 19.6945C5.18374 19.2314 3.41069 19.0191 2.39199 20.0998C1.46356 21.084 1.65698 22.7436 2.46291 23.8243C3.26884 24.905 4.53899 25.5354 5.77046 26.0822C9.15537 27.5746 12.7208 28.7453 16.4088 29.0605C17.0148 29.112 17.795 29.0348 17.9755 28.4494C18.1367 27.9348 17.6854 27.4523 17.2792 27.0985C13.9329 24.2296 10.8897 21.1033 6.59573 19.6945Z" fill="white"/>
<path opacity="0.08" d="M23.7137 26.7705C23.3656 27.7676 23.5977 28.8869 24.1006 29.8132C24.6035 30.7395 25.3514 31.505 26.0864 32.2576C26.7827 32.9717 27.479 33.6792 28.1754 34.3933C28.6138 34.8371 29.2134 35.326 29.7937 35.088C30.3288 34.8693 30.4578 34.1874 30.4771 33.6085C30.5351 31.312 29.9484 29.0027 28.7943 27.0214C27.6338 25.0337 24.7324 23.8565 23.7137 26.7705Z" fill="white"/>
</g>
<g opacity="0.2">
<path opacity="0.2" d="M22.5725 55.5503C22.566 55.5632 22.5596 55.5696 22.5596 55.576C21.8762 55.2608 21.2185 54.8877 20.5867 54.4632C20.4771 54.3924 20.3675 54.3152 20.2643 54.2445C20.1869 54.1029 20.116 53.9614 20.0386 53.8199C19.136 52.0766 18.3301 50.3077 17.7949 48.3843C17.0341 45.6826 17.0664 43.0323 17.3694 40.2598C17.6531 37.6803 18.2527 33.7628 15.8994 31.9231C14.8484 31.0997 13.4622 30.8295 12.2114 30.4564C10.8381 30.0447 9.47126 29.5944 8.11729 29.1055C5.87358 28.3079 3.72013 27.3751 1.58602 26.3716C1.46997 26.3202 1.35391 26.2623 1.23786 26.2108C1.21852 26.1658 1.19917 26.1208 1.17983 26.0757C0.676929 24.95 0.341662 23.7535 0.161133 22.5249C0.309424 22.7629 0.470611 22.9945 0.644692 23.2196C2.17274 25.2266 4.50027 26.6161 6.89872 27.4974C9.871 28.5909 13.0431 29.0283 16.1057 29.8453C17.3887 30.1862 18.7362 30.6558 19.5228 31.7236C20.1805 32.6113 20.3288 33.7885 20.2127 34.8885C20.0967 35.9885 19.7356 37.0435 19.4648 38.1113C18.0012 43.8299 19.0522 50.1404 22.2695 55.0871C22.3662 55.2415 22.4693 55.3959 22.5725 55.5503Z" fill="#C47B4E"/>
<path opacity="0.2" d="M29.3359 56.5792C29.9419 53.5301 29.5551 50.5775 29.1553 47.5412C28.7298 44.3442 28.3107 41.1536 27.8852 37.9565C27.9368 38.3232 28.5235 38.9343 28.7105 39.2817C29.0006 39.822 29.2456 40.3881 29.4519 40.9735C29.813 42.0156 30.1418 43.0898 30.4513 44.1448C31.1992 46.7243 31.7408 49.3681 32.0631 52.0377C32.2308 53.3885 32.3404 54.7651 32.5983 56.0967C32.6241 56.2382 32.6563 56.3797 32.6885 56.5213C31.5602 56.8043 30.3997 56.9587 29.2521 56.9844C29.2778 56.8493 29.3101 56.7142 29.3359 56.5792Z" fill="#C47B4E"/>
<path opacity="0.2" d="M11.8182 17.5201C11.7601 17.8996 11.3475 18.1441 10.9671 18.1441C10.5802 18.1441 10.2256 17.964 9.88392 17.7903C8.13666 16.8511 6.47322 15.7061 4.57122 15.1529C3.55252 14.8505 2.43066 14.7541 1.39262 14.9406C1.23788 14.9663 1.08314 15.0049 0.928406 15.0435C2.34685 10.9588 5.27399 7.4015 8.68469 4.73193C8.58798 4.96351 8.50416 5.20152 8.43969 5.44596C7.98837 6.99624 8.06574 8.73306 8.49127 10.3091C9.11667 12.612 10.3868 14.6769 11.586 16.7482C11.715 16.9798 11.8633 17.2435 11.8182 17.5201Z" fill="#C47B4E"/>
<path opacity="0.2" d="M39.3746 18.678C39.0135 18.2406 38.5944 17.8417 38.1496 17.4815C37.8143 17.2049 37.4661 16.954 37.1115 16.7224C35.6286 15.7511 33.991 15.0178 32.5596 13.9693C30.548 12.4962 29.0393 10.457 27.6273 8.39856C26.2153 6.34653 24.8485 4.23018 23.0496 2.50622C22.2244 1.715 21.2895 1.0074 20.2772 0.473492C19.9871 0.319108 19.697 0.184021 19.3939 0.0618004C20.4191 -0.0346898 21.4442 -0.0218244 22.4565 0.126127C22.6886 0.158291 22.9207 0.203319 23.1528 0.248348H23.1592C23.4881 0.447761 23.804 0.666472 24.107 0.898049C25.029 1.59278 25.8672 2.42259 26.6344 3.3103C28.3559 5.31087 29.6969 7.58804 31.1734 9.76228C31.9922 10.9652 32.8755 12.1359 33.8878 13.1909C34.8227 14.1687 35.9058 14.947 36.9568 15.7961C37.9432 16.5938 38.8394 17.4944 39.3681 18.6651C39.3746 18.6715 39.3746 18.6715 39.3746 18.678Z" fill="#C47B4E"/>
</g>
<path d="M39.9678 20.9618C39.8775 20.177 39.697 19.4051 39.3746 18.6846C39.3746 18.6782 39.3746 18.6782 39.3681 18.6718C38.8395 17.501 37.9433 16.6004 36.9568 15.8028C35.9059 14.9537 34.8227 14.1753 33.8878 13.1975C32.8756 12.1426 31.9923 10.9718 31.1734 9.76892C29.697 7.59468 28.3559 5.31751 26.6344 3.31694C25.8736 2.42923 25.0355 1.59942 24.107 0.904687C23.804 0.67311 23.4881 0.454399 23.1592 0.254986C23.1592 0.254986 23.1592 0.254986 23.1528 0.254986C22.9207 0.203524 22.6886 0.164928 22.4565 0.132765C21.4442 -0.015187 20.4191 -0.0344851 19.3939 0.0684378C15.5899 0.428668 11.7924 2.32631 8.8459 4.60348C8.78787 4.64851 8.73629 4.6871 8.67826 4.73213C5.26756 7.40813 2.34042 10.9654 0.921978 15.0437C0.322365 16.7612 -0.0129024 18.5753 -7.48501e-06 20.46C0.00643997 21.1548 0.0580196 21.8431 0.161179 22.5185C0.341708 23.7471 0.676975 24.9436 1.17988 26.0693C1.19922 26.1144 1.21856 26.1594 1.2379 26.2044C1.35396 26.2623 1.47001 26.3202 1.58607 26.3717C3.72017 27.3752 5.87362 28.3079 8.11089 29.1056C9.46485 29.588 10.8317 30.0383 12.205 30.4564C13.4558 30.836 14.8485 31.1061 15.893 31.9231C18.2527 33.7693 17.6531 37.6803 17.363 40.2598C17.06 43.0323 17.0277 45.6826 17.7885 48.3843C18.3301 50.3013 19.136 52.0767 20.0322 53.8199C20.1032 53.9615 20.1805 54.1094 20.2579 54.2445C20.3675 54.3153 20.4707 54.3924 20.5803 54.4632C21.2121 54.8813 21.8698 55.2544 22.5532 55.5761C24.3262 56.4059 26.254 56.8948 28.2398 56.9784C28.5687 56.9912 28.9039 56.9977 29.2392 56.9848C30.3868 56.9591 31.5474 56.8047 32.6757 56.5217C34.1973 56.1486 35.6609 55.5439 36.9761 54.7141C37.1438 54.6047 37.3114 54.4954 37.4726 54.386C37.5242 54.2059 37.5693 54.0193 37.6209 53.8392C37.969 52.4626 38.1947 51.041 38.3817 49.6644C38.6976 47.3551 38.8523 45.0329 38.9297 42.7043C39.0651 38.7224 38.9684 34.7406 39.0909 30.7588V30.7523C39.1167 29.8775 39.1618 29.0026 39.2134 28.1278C39.3552 25.8313 39.5745 23.5284 39.9871 21.2641C39.9935 21.1612 39.9806 21.0583 39.9678 20.9618ZM39.626 22.66V22.6665C38.1044 31.0804 39.1167 39.7324 38.1818 48.2171C38.0271 49.6323 37.8143 51.041 37.5306 52.4369C37.4146 53.0094 37.2727 53.5755 37.1309 54.1416C35.706 54.9971 34.1844 55.6725 32.5983 56.0907C31.5409 56.3673 30.4578 56.5345 29.3359 56.5731C28.9813 56.586 28.6138 56.586 28.2463 56.5667C26.1831 56.4831 24.1393 55.9556 22.263 55.0743C21.6183 54.772 20.9929 54.431 20.3933 54.0451C19.5938 52.3083 18.8652 50.5328 18.3172 48.7188C17.8852 47.2972 17.5693 45.8112 17.479 44.3253C17.3952 42.8844 17.5693 41.4435 17.724 40.0154C17.9948 37.5581 18.4139 34.3225 16.7118 32.2447C16.0219 31.3956 15.0032 30.9582 13.9845 30.6237C12.6048 30.1798 11.2057 29.7874 9.82591 29.3307C7.03416 28.398 4.23597 27.3752 1.51514 26.2173C1.1154 25.2588 0.825266 24.2489 0.644738 23.2197C0.161179 20.4793 0.451314 17.5782 1.3862 14.9344C1.65699 14.1624 1.97936 13.4098 2.35976 12.6958C3.75241 10.0455 5.73823 7.7362 8.00773 5.79353C8.14957 5.6713 8.29142 5.55552 8.43326 5.4333C10.7995 3.48419 13.5074 1.87602 16.4732 1.03977C17.7111 0.692408 18.9942 0.499428 20.2708 0.473697C21.3153 0.447966 22.3598 0.538024 23.3849 0.743869C26.4603 2.99531 28.53 6.58475 30.6512 9.69816C32.1083 11.8402 33.7073 13.7765 35.764 15.3718C36.5957 16.0215 37.4726 16.6648 38.1496 17.4817C38.3043 17.6618 38.4462 17.8548 38.5751 18.0542C39.3424 19.225 39.6067 20.6337 39.6325 22.0168C39.6325 22.229 39.6325 22.4413 39.626 22.66Z" fill="#C47B4E"/>
<path opacity="0.05" d="M36.8794 48.8216C36.8214 49.6385 36.7182 50.4748 36.3314 51.1952C35.9445 51.9221 35.216 52.5139 34.3972 52.5204C33.5074 52.5332 32.7208 51.8642 32.3275 51.0666C31.9342 50.2689 31.844 49.3619 31.7472 48.4806C31.3862 45.1678 30.8446 41.8807 30.1096 38.6322C29.8066 37.2749 29.0844 35.6153 27.6918 35.6474C26.8472 35.6667 26.1509 36.3872 25.8865 37.1784C25.6222 37.9761 25.6866 38.838 25.7576 39.6743C26.0541 43.2251 26.3507 46.7824 26.6473 50.3332C26.7182 51.2145 26.7892 52.1215 26.4732 52.9449C26.1573 53.7683 25.3385 54.4695 24.4616 54.3408C23.3591 54.1864 22.824 52.9256 22.5661 51.8449C21.8569 48.8666 21.657 45.7596 21.9729 42.7169C22.392 38.6579 23.6686 34.2837 21.7215 30.6878C20.432 28.3077 17.9626 26.8089 15.4803 25.7089C10.8833 23.6698 5.89941 22.5955 1.43777 20.2476C1.12185 20.0803 0.586708 19.8102 0.0322266 19.4757C0.0967011 18.3435 0.283677 17.2435 0.573813 16.1693C2.45002 16.2465 4.84203 17.3979 6.02191 18.1505C7.11798 18.8517 8.11733 19.7458 9.34235 20.1897C10.5674 20.6335 12.147 20.4856 12.882 19.4113C13.7331 18.1634 13.0303 16.4845 12.3855 15.1143C11.3411 12.9015 10.5029 10.5921 9.87749 8.2249C9.52932 6.9062 9.27787 5.42669 9.49064 4.10799C11.3733 2.75069 13.5525 1.56064 15.8285 0.814453C15.8543 0.820886 15.8865 0.827318 15.9123 0.840184C19.6131 1.90801 22.1921 5.17581 24.3069 8.39215C26.4217 11.6021 28.4655 15.0821 31.7795 17.0377C33.3527 17.9704 35.2805 18.633 36.1186 20.254C36.9632 21.8944 36.3572 23.8628 35.9832 25.6768C34.4294 33.2738 37.4339 41.0895 36.8794 48.8216Z" fill="white"/>
</svg>
